ISO-10303-21;
HEADER;
FILE_DESCRIPTION(('FreeCAD Model'),'2;1');
FILE_NAME('Open CASCADE Shape Model','2026-03-12T11:41:29',(''),(''),
  'Open CASCADE STEP processor 7.8','FreeCAD','Unknown');
FILE_SCHEMA(('AUTOMOTIVE_DESIGN { 1 0 10303 214 1 1 1 1 }'));
ENDSEC;
DATA;
#1 = APPLICATION_PROTOCOL_DEFINITION('international standard',
  'automotive_design',2000,#2);
#2 = APPLICATION_CONTEXT(
  'core data for automotive mechanical design processes');
#3 = SHAPE_DEFINITION_REPRESENTATION(#4,#10);
#4 = PRODUCT_DEFINITION_SHAPE('','',#5);
#5 = PRODUCT_DEFINITION('design','',#6,#9);
#6 = PRODUCT_DEFINITION_FORMATION('','',#7);
#7 = PRODUCT('before_side_wall_screws','before_side_wall_screws','',(#8)
  );
#8 = PRODUCT_CONTEXT('',#2,'mechanical');
#9 = PRODUCT_DEFINITION_CONTEXT('part definition',#2,'design');
#10 = ADVANCED_BREP_SHAPE_REPRESENTATION('',(#11,#15),#1779);
#11 = AXIS2_PLACEMENT_3D('',#12,#13,#14);
#12 = CARTESIAN_POINT('',(0.,0.,0.));
#13 = DIRECTION('',(0.,0.,1.));
#14 = DIRECTION('',(1.,0.,-0.));
#15 = MANIFOLD_SOLID_BREP('',#16);
#16 = CLOSED_SHELL('',(#17,#58,#465,#500,#630,#647,#669,#686,#703,#715,
    #732,#749,#766,#783,#795,#836,#860,#884,#908,#932,#957,#982,#1006,
    #1023,#1064,#1088,#1112,#1136,#1160,#1185,#1210,#1234,#1251,#1292,
    #1316,#1340,#1364,#1388,#1413,#1438,#1462,#1479,#1520,#1544,#1568,
    #1593,#1617,#1641,#1666,#1690,#1707,#1725,#1743,#1761));
#17 = ADVANCED_FACE('',(#18),#53,.F.);
#18 = FACE_BOUND('',#19,.F.);
#19 = EDGE_LOOP('',(#20,#30,#38,#47));
#20 = ORIENTED_EDGE('',*,*,#21,.F.);
#21 = EDGE_CURVE('',#22,#24,#26,.T.);
#22 = VERTEX_POINT('',#23);
#23 = CARTESIAN_POINT('',(-4.711,-65.33406021953,57.471));
#24 = VERTEX_POINT('',#25);
#25 = CARTESIAN_POINT('',(-4.711,-37.43906185187,57.471));
#26 = LINE('',#27,#28);
#27 = CARTESIAN_POINT('',(-4.711,-70.71905858719,57.471));
#28 = VECTOR('',#29,1.);
#29 = DIRECTION('',(0.,1.,-2.E-15));
#30 = ORIENTED_EDGE('',*,*,#31,.T.);
#31 = EDGE_CURVE('',#22,#32,#34,.T.);
#32 = VERTEX_POINT('',#33);
#33 = CARTESIAN_POINT('',(-4.711,-65.33406021953,70.026099746446));
#34 = LINE('',#35,#36);
#35 = CARTESIAN_POINT('',(-4.711,-65.33406021953,57.471));
#36 = VECTOR('',#37,1.);
#37 = DIRECTION('',(0.,2.21E-15,1.));
#38 = ORIENTED_EDGE('',*,*,#39,.F.);
#39 = EDGE_CURVE('',#40,#32,#42,.T.);
#40 = VERTEX_POINT('',#41);
#41 = CARTESIAN_POINT('',(-4.711,-37.43906185187,65.574127419452));
#42 = CIRCLE('',#43,121.01826644405);
#43 = AXIS2_PLACEMENT_3D('',#44,#45,#46);
#44 = CARTESIAN_POINT('',(-4.711,-32.44406757908,186.48926644405));
#45 = DIRECTION('',(-1.,0.,0.));
#46 = DIRECTION('',(0.,-1.,0.));
#47 = ORIENTED_EDGE('',*,*,#48,.F.);
#48 = EDGE_CURVE('',#24,#40,#49,.T.);
#49 = LINE('',#50,#51);
#50 = CARTESIAN_POINT('',(-4.711,-37.43906185187,57.471));
#51 = VECTOR('',#52,1.);
#52 = DIRECTION('',(0.,2.21E-15,1.));
#53 = PLANE('',#54);
#54 = AXIS2_PLACEMENT_3D('',#55,#56,#57);
#55 = CARTESIAN_POINT('',(-4.711,-70.71905858719,57.471));
#56 = DIRECTION('',(-1.,0.,0.));
#57 = DIRECTION('',(0.,1.,-2.21E-15));
#58 = ADVANCED_FACE('',(#59,#152,#229,#306,#383),#460,.T.);
#59 = FACE_BOUND('',#60,.T.);
#60 = EDGE_LOOP('',(#61,#71,#80,#88,#95,#96,#104,#112,#121,#129,#138,
    #146));
#61 = ORIENTED_EDGE('',*,*,#62,.F.);
#62 = EDGE_CURVE('',#63,#65,#67,.T.);
#63 = VERTEX_POINT('',#64);
#64 = CARTESIAN_POINT('',(-14.711,-37.43906185187,57.471));
#65 = VERTEX_POINT('',#66);
#66 = CARTESIAN_POINT('',(-14.711,-75.71406021953,57.471));
#67 = LINE('',#68,#69);
#68 = CARTESIAN_POINT('',(-14.711,-73.33406021953,57.471));
#69 = VECTOR('',#70,1.);
#70 = DIRECTION('',(0.,-1.,2.E-15));
#71 = ORIENTED_EDGE('',*,*,#72,.F.);
#72 = EDGE_CURVE('',#73,#63,#75,.T.);
#73 = VERTEX_POINT('',#74);
#74 = CARTESIAN_POINT('',(-9.715998367655,-32.44406021953,57.471));
#75 = CIRCLE('',#76,4.995001632345);
#76 = AXIS2_PLACEMENT_3D('',#77,#78,#79);
#77 = CARTESIAN_POINT('',(-9.715998367655,-37.43906185187,57.471));
#78 = DIRECTION('',(-0.,2.E-15,1.));
#79 = DIRECTION('',(1.,0.,0.));
#80 = ORIENTED_EDGE('',*,*,#81,.F.);
#81 = EDGE_CURVE('',#82,#73,#84,.T.);
#82 = VERTEX_POINT('',#83);
#83 = CARTESIAN_POINT('',(-9.706001632345,-32.44406021953,57.471));
#84 = LINE('',#85,#86);
#85 = CARTESIAN_POINT('',(-9.706001632345,-32.44406021953,57.471));
#86 = VECTOR('',#87,1.);
#87 = DIRECTION('',(-1.,0.,0.));
#88 = ORIENTED_EDGE('',*,*,#89,.F.);
#89 = EDGE_CURVE('',#24,#82,#90,.T.);
#90 = CIRCLE('',#91,4.995001632345);
#91 = AXIS2_PLACEMENT_3D('',#92,#93,#94);
#92 = CARTESIAN_POINT('',(-9.706001632345,-37.43906185187,57.471));
#93 = DIRECTION('',(-0.,2.E-15,1.));
#94 = DIRECTION('',(1.,0.,0.));
#95 = ORIENTED_EDGE('',*,*,#21,.F.);
#96 = ORIENTED_EDGE('',*,*,#97,.F.);
#97 = EDGE_CURVE('',#98,#22,#100,.T.);
#98 = VERTEX_POINT('',#99);
#99 = CARTESIAN_POINT('',(67.289,-65.33406021953,57.471));
#100 = LINE('',#101,#102);
#101 = CARTESIAN_POINT('',(76.789,-65.33406021953,57.471));
#102 = VECTOR('',#103,1.);
#103 = DIRECTION('',(-1.,0.,0.));
#104 = ORIENTED_EDGE('',*,*,#105,.F.);
#105 = EDGE_CURVE('',#106,#98,#108,.T.);
#106 = VERTEX_POINT('',#107);
#107 = CARTESIAN_POINT('',(67.289,-37.4593116438,57.471));
#108 = LINE('',#109,#110);
#109 = CARTESIAN_POINT('',(67.289,-37.4593116438,57.471));
#110 = VECTOR('',#111,1.);
#111 = DIRECTION('',(0.,-1.,2.E-15));
#112 = ORIENTED_EDGE('',*,*,#113,.F.);
#113 = EDGE_CURVE('',#114,#106,#116,.T.);
#114 = VERTEX_POINT('',#115);
#115 = CARTESIAN_POINT('',(72.034251424268,-32.71406021953,57.471));
#116 = CIRCLE('',#117,4.745251424268);
#117 = AXIS2_PLACEMENT_3D('',#118,#119,#120);
#118 = CARTESIAN_POINT('',(72.034251424268,-37.4593116438,57.471));
#119 = DIRECTION('',(-0.,2.E-15,1.));
#120 = DIRECTION('',(1.,0.,0.));
#121 = ORIENTED_EDGE('',*,*,#122,.F.);
#122 = EDGE_CURVE('',#123,#114,#125,.T.);
#123 = VERTEX_POINT('',#124);
#124 = CARTESIAN_POINT('',(72.043748575732,-32.71406021953,57.471));
#125 = LINE('',#126,#127);
#126 = CARTESIAN_POINT('',(72.043748575732,-32.71406021953,57.471));
#127 = VECTOR('',#128,1.);
#128 = DIRECTION('',(-1.,0.,0.));
#129 = ORIENTED_EDGE('',*,*,#130,.F.);
#130 = EDGE_CURVE('',#131,#123,#133,.T.);
#131 = VERTEX_POINT('',#132);
#132 = CARTESIAN_POINT('',(76.789,-37.4593116438,57.471));
#133 = CIRCLE('',#134,4.745251424268);
#134 = AXIS2_PLACEMENT_3D('',#135,#136,#137);
#135 = CARTESIAN_POINT('',(72.043748575732,-37.4593116438,57.471));
#136 = DIRECTION('',(-0.,2.E-15,1.));
#137 = DIRECTION('',(1.,0.,0.));
#138 = ORIENTED_EDGE('',*,*,#139,.F.);
#139 = EDGE_CURVE('',#140,#131,#142,.T.);
#140 = VERTEX_POINT('',#141);
#141 = CARTESIAN_POINT('',(76.789,-75.71406021953,57.471));
#142 = LINE('',#143,#144);
#143 = CARTESIAN_POINT('',(76.789,-75.71406021953,57.471));
#144 = VECTOR('',#145,1.);
#145 = DIRECTION('',(0.,1.,-2.E-15));
#146 = ORIENTED_EDGE('',*,*,#147,.F.);
#147 = EDGE_CURVE('',#65,#140,#148,.T.);
#148 = LINE('',#149,#150);
#149 = CARTESIAN_POINT('',(-14.711,-75.71406021953,57.471));
#150 = VECTOR('',#151,1.);
#151 = DIRECTION('',(1.,0.,0.));
#152 = FACE_BOUND('',#153,.T.);
#153 = EDGE_LOOP('',(#154,#165,#173,#181,#190,#198,#206,#215,#223));
#154 = ORIENTED_EDGE('',*,*,#155,.T.);
#155 = EDGE_CURVE('',#156,#158,#160,.T.);
#156 = VERTEX_POINT('',#157);
#157 = CARTESIAN_POINT('',(71.654286060103,-38.95863620594,57.471));
#158 = VERTEX_POINT('',#159);
#159 = CARTESIAN_POINT('',(73.545714036609,-37.86661962654,57.471));
#160 = CIRCLE('',#161,1.55);
#161 = AXIS2_PLACEMENT_3D('',#162,#163,#164);
#162 = CARTESIAN_POINT('',(72.05,-37.46,57.471));
#163 = DIRECTION('',(8.659560562355E-17,8.659560562355E-17,1.));
#164 = DIRECTION('',(-2.22044604925E-16,-1.,8.659560562355E-17));
#165 = ORIENTED_EDGE('',*,*,#166,.T.);
#166 = EDGE_CURVE('',#158,#167,#169,.T.);
#167 = VERTEX_POINT('',#168);
#168 = CARTESIAN_POINT('',(74.25,-37.45999988832,57.471));
#169 = LINE('',#170,#171);
#170 = CARTESIAN_POINT('',(52.965502050409,-49.74861194964,57.471));
#171 = VECTOR('',#172,1.);
#172 = DIRECTION('',(0.866025378404,0.50000004396,-1.143532354694E-15));
#173 = ORIENTED_EDGE('',*,*,#174,.T.);
#174 = EDGE_CURVE('',#167,#175,#177,.T.);
#175 = VERTEX_POINT('',#176);
#176 = CARTESIAN_POINT('',(73.545713995328,-37.0533802216,57.471));
#177 = LINE('',#178,#179);
#178 = CARTESIAN_POINT('',(61.481639933338,-30.0881846309,57.471));
#179 = VECTOR('',#180,1.);
#180 = DIRECTION('',(-0.866025429165,0.49999995604,-1.143532153615E-15)
  );
#181 = ORIENTED_EDGE('',*,*,#182,.T.);
#182 = EDGE_CURVE('',#175,#183,#185,.T.);
#183 = VERTEX_POINT('',#184);
#184 = CARTESIAN_POINT('',(71.654285907959,-35.96136383422,57.471));
#185 = CIRCLE('',#186,1.55);
#186 = AXIS2_PLACEMENT_3D('',#187,#188,#189);
#187 = CARTESIAN_POINT('',(72.05,-37.46,57.471));
#188 = DIRECTION('',(8.659560562355E-17,8.659560562355E-17,1.));
#189 = DIRECTION('',(-2.22044604925E-16,-1.,8.659560562355E-17));
#190 = ORIENTED_EDGE('',*,*,#191,.T.);
#191 = EDGE_CURVE('',#183,#192,#194,.T.);
#192 = VERTEX_POINT('',#193);
#193 = CARTESIAN_POINT('',(70.949999903287,-35.55474416751,57.471));
#194 = LINE('',#195,#196);
#195 = CARTESIAN_POINT('',(61.481639933338,-30.0881846309,57.471));
#196 = VECTOR('',#197,1.);
#197 = DIRECTION('',(-0.866025429165,0.49999995604,-1.143532153615E-15)
  );
#198 = ORIENTED_EDGE('',*,*,#199,.T.);
#199 = EDGE_CURVE('',#192,#200,#202,.T.);
#200 = VERTEX_POINT('',#201);
#201 = CARTESIAN_POINT('',(70.949999944568,-36.36798357244,57.471));
#202 = LINE('',#203,#204);
#203 = CARTESIAN_POINT('',(70.950000644232,-50.15147403901,57.471));
#204 = VECTOR('',#205,1.);
#205 = DIRECTION('',(5.076101552796E-08,-1.,2.28706450831E-15));
#206 = ORIENTED_EDGE('',*,*,#207,.T.);
#207 = EDGE_CURVE('',#200,#208,#210,.T.);
#208 = VERTEX_POINT('',#209);
#209 = CARTESIAN_POINT('',(70.950000055432,-38.55201653922,57.471));
#210 = CIRCLE('',#211,1.55);
#211 = AXIS2_PLACEMENT_3D('',#212,#213,#214);
#212 = CARTESIAN_POINT('',(72.05,-37.46,57.471));
#213 = DIRECTION('',(8.659560562355E-17,8.659560562355E-17,1.));
#214 = DIRECTION('',(-2.22044604925E-16,-1.,8.659560562355E-17));
#215 = ORIENTED_EDGE('',*,*,#216,.T.);
#216 = EDGE_CURVE('',#208,#217,#219,.T.);
#217 = VERTEX_POINT('',#218);
#218 = CARTESIAN_POINT('',(70.950000096713,-39.36525594416,57.471));
#219 = LINE('',#220,#221);
#220 = CARTESIAN_POINT('',(70.950000644232,-50.15147403901,57.471));
#221 = VECTOR('',#222,1.);
#222 = DIRECTION('',(5.076101552796E-08,-1.,2.28706450831E-15));
#223 = ORIENTED_EDGE('',*,*,#224,.T.);
#224 = EDGE_CURVE('',#217,#156,#225,.T.);
#225 = LINE('',#226,#227);
#226 = CARTESIAN_POINT('',(52.965502050409,-49.74861194964,57.471));
#227 = VECTOR('',#228,1.);
#228 = DIRECTION('',(0.866025378404,0.50000004396,-1.143532354694E-15));
#229 = FACE_BOUND('',#230,.T.);
#230 = EDGE_LOOP('',(#231,#242,#250,#258,#267,#275,#283,#292,#300));
#231 = ORIENTED_EDGE('',*,*,#232,.T.);
#232 = EDGE_CURVE('',#233,#235,#237,.T.);
#233 = VERTEX_POINT('',#234);
#234 = CARTESIAN_POINT('',(71.654286060103,-70.70863620594,57.471));
#235 = VERTEX_POINT('',#236);
#236 = CARTESIAN_POINT('',(73.545714036609,-69.61661962654,57.471));
#237 = CIRCLE('',#238,1.55);
#238 = AXIS2_PLACEMENT_3D('',#239,#240,#241);
#239 = CARTESIAN_POINT('',(72.05,-69.21,57.471));
#240 = DIRECTION('',(8.659560562355E-17,8.659560562355E-17,1.));
#241 = DIRECTION('',(-2.22044604925E-16,-1.,8.659560562355E-17));
#242 = ORIENTED_EDGE('',*,*,#243,.T.);
#243 = EDGE_CURVE('',#235,#244,#246,.T.);
#244 = VERTEX_POINT('',#245);
#245 = CARTESIAN_POINT('',(74.25,-69.20999988832,57.471));
#246 = LINE('',#247,#248);
#247 = CARTESIAN_POINT('',(59.839579095861,-77.52986125177,57.471));
#248 = VECTOR('',#249,1.);
#249 = DIRECTION('',(0.866025378404,0.50000004396,-1.143532354694E-15));
#250 = ORIENTED_EDGE('',*,*,#251,.T.);
#251 = EDGE_CURVE('',#244,#252,#254,.T.);
#252 = VERTEX_POINT('',#253);
#253 = CARTESIAN_POINT('',(73.545713995328,-68.8033802216,57.471));
#254 = LINE('',#255,#256);
#255 = CARTESIAN_POINT('',(54.607563693713,-57.86943532877,57.471));
#256 = VECTOR('',#257,1.);
#257 = DIRECTION('',(-0.866025429165,0.49999995604,-1.143532153615E-15)
  );
#258 = ORIENTED_EDGE('',*,*,#259,.T.);
#259 = EDGE_CURVE('',#252,#260,#262,.T.);
#260 = VERTEX_POINT('',#261);
#261 = CARTESIAN_POINT('',(71.654285907959,-67.71136383422,57.471));
#262 = CIRCLE('',#263,1.55);
#263 = AXIS2_PLACEMENT_3D('',#264,#265,#266);
#264 = CARTESIAN_POINT('',(72.05,-69.21,57.471));
#265 = DIRECTION('',(8.659560562355E-17,8.659560562355E-17,1.));
#266 = DIRECTION('',(-2.22044604925E-16,-1.,8.659560562355E-17));
#267 = ORIENTED_EDGE('',*,*,#268,.T.);
#268 = EDGE_CURVE('',#260,#269,#271,.T.);
#269 = VERTEX_POINT('',#270);
#270 = CARTESIAN_POINT('',(70.949999903287,-67.30474416751,57.471));
#271 = LINE('',#272,#273);
#272 = CARTESIAN_POINT('',(54.607563693713,-57.86943532877,57.471));
#273 = VECTOR('',#274,1.);
#274 = DIRECTION('',(-0.866025429165,0.49999995604,-1.143532153615E-15)
  );
#275 = ORIENTED_EDGE('',*,*,#276,.T.);
#276 = EDGE_CURVE('',#269,#277,#279,.T.);
#277 = VERTEX_POINT('',#278);
#278 = CARTESIAN_POINT('',(70.949999944568,-68.11798357244,57.471));
#279 = LINE('',#280,#281);
#280 = CARTESIAN_POINT('',(70.949999838401,-66.02647403901,57.471));
#281 = VECTOR('',#282,1.);
#282 = DIRECTION('',(5.076101552796E-08,-1.,2.28706450831E-15));
#283 = ORIENTED_EDGE('',*,*,#284,.T.);
#284 = EDGE_CURVE('',#277,#285,#287,.T.);
#285 = VERTEX_POINT('',#286);
#286 = CARTESIAN_POINT('',(70.950000055432,-70.30201653922,57.471));
#287 = CIRCLE('',#288,1.55);
#288 = AXIS2_PLACEMENT_3D('',#289,#290,#291);
#289 = CARTESIAN_POINT('',(72.05,-69.21,57.471));
#290 = DIRECTION('',(8.659560562355E-17,8.659560562355E-17,1.));
#291 = DIRECTION('',(-2.22044604925E-16,-1.,8.659560562355E-17));
#292 = ORIENTED_EDGE('',*,*,#293,.T.);
#293 = EDGE_CURVE('',#285,#294,#296,.T.);
#294 = VERTEX_POINT('',#295);
#295 = CARTESIAN_POINT('',(70.950000096713,-71.11525594416,57.471));
#296 = LINE('',#297,#298);
#297 = CARTESIAN_POINT('',(70.949999838401,-66.02647403901,57.471));
#298 = VECTOR('',#299,1.);
#299 = DIRECTION('',(5.076101552796E-08,-1.,2.28706450831E-15));
#300 = ORIENTED_EDGE('',*,*,#301,.T.);
#301 = EDGE_CURVE('',#294,#233,#302,.T.);
#302 = LINE('',#303,#304);
#303 = CARTESIAN_POINT('',(59.839579095861,-77.52986125177,57.471));
#304 = VECTOR('',#305,1.);
#305 = DIRECTION('',(0.866025378404,0.50000004396,-1.143532354694E-15));
#306 = FACE_BOUND('',#307,.T.);
#307 = EDGE_LOOP('',(#308,#319,#327,#335,#344,#352,#360,#369,#377));
#308 = ORIENTED_EDGE('',*,*,#309,.T.);
#309 = EDGE_CURVE('',#310,#312,#314,.T.);
#310 = VERTEX_POINT('',#311);
#311 = CARTESIAN_POINT('',(-10.07571393989,-38.91863620594,57.471));
#312 = VERTEX_POINT('',#313);
#313 = CARTESIAN_POINT('',(-8.184285963391,-37.82661962654,57.471));
#314 = CIRCLE('',#315,1.55);
#315 = AXIS2_PLACEMENT_3D('',#316,#317,#318);
#316 = CARTESIAN_POINT('',(-9.68,-37.42,57.471));
#317 = DIRECTION('',(8.659560562355E-17,8.659560562355E-17,1.));
#318 = DIRECTION('',(-2.22044604925E-16,-1.,8.659560562355E-17));
#319 = ORIENTED_EDGE('',*,*,#320,.T.);
#320 = EDGE_CURVE('',#312,#321,#323,.T.);
#321 = VERTEX_POINT('',#322);
#322 = CARTESIAN_POINT('',(-7.48,-37.41999988832,57.471));
#323 = LINE('',#324,#325);
#324 = CARTESIAN_POINT('',(1.875589999436,-32.01854685052,57.471));
#325 = VECTOR('',#326,1.);
#326 = DIRECTION('',(0.866025378404,0.50000004396,-1.143532354694E-15));
#327 = ORIENTED_EDGE('',*,*,#328,.T.);
#328 = EDGE_CURVE('',#321,#329,#331,.T.);
#329 = VERTEX_POINT('',#330);
#330 = CARTESIAN_POINT('',(-8.184286004672,-37.0133802216,57.471));
#331 = LINE('',#332,#333);
#332 = CARTESIAN_POINT('',(10.409051983298,-47.74824765568,57.471));
#333 = VECTOR('',#334,1.);
#334 = DIRECTION('',(-0.866025429165,0.49999995604,-1.143532153615E-15)
  );
#335 = ORIENTED_EDGE('',*,*,#336,.T.);
#336 = EDGE_CURVE('',#329,#337,#339,.T.);
#337 = VERTEX_POINT('',#338);
#338 = CARTESIAN_POINT('',(-10.07571409204,-35.92136383422,57.471));
#339 = CIRCLE('',#340,1.55);
#340 = AXIS2_PLACEMENT_3D('',#341,#342,#343);
#341 = CARTESIAN_POINT('',(-9.68,-37.42,57.471));
#342 = DIRECTION('',(8.659560562355E-17,8.659560562355E-17,1.));
#343 = DIRECTION('',(-2.22044604925E-16,-1.,8.659560562355E-17));
#344 = ORIENTED_EDGE('',*,*,#345,.T.);
#345 = EDGE_CURVE('',#337,#346,#348,.T.);
#346 = VERTEX_POINT('',#347);
#347 = CARTESIAN_POINT('',(-10.78000009671,-35.51474416751,57.471));
#348 = LINE('',#349,#350);
#349 = CARTESIAN_POINT('',(10.409051983298,-47.74824765568,57.471));
#350 = VECTOR('',#351,1.);
#351 = DIRECTION('',(-0.866025429165,0.49999995604,-1.143532153615E-15)
  );
#352 = ORIENTED_EDGE('',*,*,#353,.T.);
#353 = EDGE_CURVE('',#346,#354,#356,.T.);
#354 = VERTEX_POINT('',#355);
#355 = CARTESIAN_POINT('',(-10.78000005543,-36.32798357244,57.471));
#356 = LINE('',#357,#358);
#357 = CARTESIAN_POINT('',(-10.77999935475,-50.13147611336,57.471));
#358 = VECTOR('',#359,1.);
#359 = DIRECTION('',(5.076101552796E-08,-1.,2.28706450831E-15));
#360 = ORIENTED_EDGE('',*,*,#361,.T.);
#361 = EDGE_CURVE('',#354,#362,#364,.T.);
#362 = VERTEX_POINT('',#363);
#363 = CARTESIAN_POINT('',(-10.77999994456,-38.51201653922,57.471));
#364 = CIRCLE('',#365,1.55);
#365 = AXIS2_PLACEMENT_3D('',#366,#367,#368);
#366 = CARTESIAN_POINT('',(-9.68,-37.42,57.471));
#367 = DIRECTION('',(8.659560562355E-17,8.659560562355E-17,1.));
#368 = DIRECTION('',(-2.22044604925E-16,-1.,8.659560562355E-17));
#369 = ORIENTED_EDGE('',*,*,#370,.T.);
#370 = EDGE_CURVE('',#362,#371,#373,.T.);
#371 = VERTEX_POINT('',#372);
#372 = CARTESIAN_POINT('',(-10.77999990328,-39.32525594416,57.471));
#373 = LINE('',#374,#375);
#374 = CARTESIAN_POINT('',(-10.77999935475,-50.13147611336,57.471));
#375 = VECTOR('',#376,1.);
#376 = DIRECTION('',(5.076101552796E-08,-1.,2.28706450831E-15));
#377 = ORIENTED_EDGE('',*,*,#378,.T.);
#378 = EDGE_CURVE('',#371,#310,#379,.T.);
#379 = LINE('',#380,#381);
#380 = CARTESIAN_POINT('',(1.875589999436,-32.01854685052,57.471));
#381 = VECTOR('',#382,1.);
#382 = DIRECTION('',(0.866025378404,0.50000004396,-1.143532354694E-15));
#383 = FACE_BOUND('',#384,.T.);
#384 = EDGE_LOOP('',(#385,#396,#404,#412,#421,#429,#437,#446,#454));
#385 = ORIENTED_EDGE('',*,*,#386,.T.);
#386 = EDGE_CURVE('',#387,#389,#391,.T.);
#387 = VERTEX_POINT('',#388);
#388 = CARTESIAN_POINT('',(-10.14571393989,-70.70863620594,57.471));
#389 = VERTEX_POINT('',#390);
#390 = CARTESIAN_POINT('',(-8.254285963391,-69.61661962654,57.471));
#391 = CIRCLE('',#392,1.55);
#392 = AXIS2_PLACEMENT_3D('',#393,#394,#395);
#393 = CARTESIAN_POINT('',(-9.75,-69.21,57.471));
#394 = DIRECTION('',(8.659560562355E-17,8.659560562355E-17,1.));
#395 = DIRECTION('',(-2.22044604925E-16,-1.,8.659560562355E-17));
#396 = ORIENTED_EDGE('',*,*,#397,.T.);
#397 = EDGE_CURVE('',#389,#398,#400,.T.);
#398 = VERTEX_POINT('',#399);
#399 = CARTESIAN_POINT('',(-7.55,-69.20999988832,57.471));
#400 = LINE('',#401,#402);
#401 = CARTESIAN_POINT('',(8.714577297895,-59.81964070632,57.471));
#402 = VECTOR('',#403,1.);
#403 = DIRECTION('',(0.866025378404,0.50000004396,-1.143532354694E-15));
#404 = ORIENTED_EDGE('',*,*,#405,.T.);
#405 = EDGE_CURVE('',#398,#406,#408,.T.);
#406 = VERTEX_POINT('',#407);
#407 = CARTESIAN_POINT('',(-8.254286004672,-68.8033802216,57.471));
#408 = LINE('',#409,#410);
#409 = CARTESIAN_POINT('',(3.482565491681,-75.5796537981,57.471));
#410 = VECTOR('',#411,1.);
#411 = DIRECTION('',(-0.866025429165,0.49999995604,-1.143532153615E-15)
  );
#412 = ORIENTED_EDGE('',*,*,#413,.T.);
#413 = EDGE_CURVE('',#406,#414,#416,.T.);
#414 = VERTEX_POINT('',#415);
#415 = CARTESIAN_POINT('',(-10.14571409204,-67.71136383422,57.471));
#416 = CIRCLE('',#417,1.55);
#417 = AXIS2_PLACEMENT_3D('',#418,#419,#420);
#418 = CARTESIAN_POINT('',(-9.75,-69.21,57.471));
#419 = DIRECTION('',(8.659560562355E-17,8.659560562355E-17,1.));
#420 = DIRECTION('',(-2.22044604925E-16,-1.,8.659560562355E-17));
#421 = ORIENTED_EDGE('',*,*,#422,.T.);
#422 = EDGE_CURVE('',#414,#423,#425,.T.);
#423 = VERTEX_POINT('',#424);
#424 = CARTESIAN_POINT('',(-10.85000009671,-67.30474416751,57.471));
#425 = LINE('',#426,#427);
#426 = CARTESIAN_POINT('',(3.482565491681,-75.5796537981,57.471));
#427 = VECTOR('',#428,1.);
#428 = DIRECTION('',(-0.866025429165,0.49999995604,-1.143532153615E-15)
  );
#429 = ORIENTED_EDGE('',*,*,#430,.T.);
#430 = EDGE_CURVE('',#423,#431,#433,.T.);
#431 = VERTEX_POINT('',#432);
#432 = CARTESIAN_POINT('',(-10.85000005543,-68.11798357244,57.471));
#433 = LINE('',#434,#435);
#434 = CARTESIAN_POINT('',(-10.85000016159,-66.02647611514,57.471));
#435 = VECTOR('',#436,1.);
#436 = DIRECTION('',(5.076101552796E-08,-1.,2.28706450831E-15));
#437 = ORIENTED_EDGE('',*,*,#438,.T.);
#438 = EDGE_CURVE('',#431,#439,#441,.T.);
#439 = VERTEX_POINT('',#440);
#440 = CARTESIAN_POINT('',(-10.84999994456,-70.30201653922,57.471));
#441 = CIRCLE('',#442,1.55);
#442 = AXIS2_PLACEMENT_3D('',#443,#444,#445);
#443 = CARTESIAN_POINT('',(-9.75,-69.21,57.471));
#444 = DIRECTION('',(8.659560562355E-17,8.659560562355E-17,1.));
#445 = DIRECTION('',(-2.22044604925E-16,-1.,8.659560562355E-17));
#446 = ORIENTED_EDGE('',*,*,#447,.T.);
#447 = EDGE_CURVE('',#439,#448,#450,.T.);
#448 = VERTEX_POINT('',#449);
#449 = CARTESIAN_POINT('',(-10.84999990328,-71.11525594416,57.471));
#450 = LINE('',#451,#452);
#451 = CARTESIAN_POINT('',(-10.85000016159,-66.02647611514,57.471));
#452 = VECTOR('',#453,1.);
#453 = DIRECTION('',(5.076101552796E-08,-1.,2.28706450831E-15));
#454 = ORIENTED_EDGE('',*,*,#455,.T.);
#455 = EDGE_CURVE('',#448,#387,#456,.T.);
#456 = LINE('',#457,#458);
#457 = CARTESIAN_POINT('',(8.714577297895,-59.81964070632,57.471));
#458 = VECTOR('',#459,1.);
#459 = DIRECTION('',(0.866025378404,0.50000004396,-1.143532354694E-15));
#460 = PLANE('',#461);
#461 = AXIS2_PLACEMENT_3D('',#462,#463,#464);
#462 = CARTESIAN_POINT('',(31.046190170638,-60.93769415942,57.471));
#463 = DIRECTION('',(-0.,-2.28706450831E-15,-1.));
#464 = DIRECTION('',(0.,-1.,2.28706450831E-15));
#465 = ADVANCED_FACE('',(#466),#495,.T.);
#466 = FACE_BOUND('',#467,.F.);
#467 = EDGE_LOOP('',(#468,#469,#470,#489));
#468 = ORIENTED_EDGE('',*,*,#89,.F.);
#469 = ORIENTED_EDGE('',*,*,#48,.T.);
#470 = ORIENTED_EDGE('',*,*,#471,.T.);
#471 = EDGE_CURVE('',#40,#472,#474,.T.);
#472 = VERTEX_POINT('',#473);
#473 = CARTESIAN_POINT('',(-9.706001632345,-32.44406021953,65.471));
#474 = B_SPLINE_CURVE_WITH_KNOTS('',7,(#475,#476,#477,#478,#479,#480,
    #481,#482,#483,#484,#485,#486,#487,#488),.UNSPECIFIED.,.F.,.F.,(8,6,
    8),(0.,0.4844146868,1.),.UNSPECIFIED.);
#475 = CARTESIAN_POINT('',(-4.711,-37.43906185187,65.574127419452));
#476 = CARTESIAN_POINT('',(-4.711,-36.76705995871,65.546367077491));
#477 = CARTESIAN_POINT('',(-4.816475858707,-36.11592782225,
    65.523833535645));
#478 = CARTESIAN_POINT('',(-5.015633164215,-35.5046168695,
    65.506817152638));
#479 = CARTESIAN_POINT('',(-5.293422511206,-34.94821179572,
    65.494736754546));
#480 = CARTESIAN_POINT('',(-5.631613652316,-34.45779754145,
    65.486493879693));
#481 = CARTESIAN_POINT('',(-6.00923087037,-34.03918766347,
    65.481015570241));
#482 = CARTESIAN_POINT('',(-6.821586329271,-33.3229999873,
    65.473628382963));
#483 = CARTESIAN_POINT('',(-7.271781930832,-33.02317846438,
    65.471850571594));
#484 = CARTESIAN_POINT('',(-7.742045945281,-32.78872804247,
    65.471171262178));
#485 = CARTESIAN_POINT('',(-8.225107036354,-32.61575582792,
    65.470999862225));
#486 = CARTESIAN_POINT('',(-8.715853132666,-32.50138078879,
    65.471000029058));
#487 = CARTESIAN_POINT('',(-9.210609748188,-32.44406002231,65.471));
#488 = CARTESIAN_POINT('',(-9.706003620947,-32.44406021953,65.471));
#489 = ORIENTED_EDGE('',*,*,#490,.F.);
#490 = EDGE_CURVE('',#82,#472,#491,.T.);
#491 = LINE('',#492,#493);
#492 = CARTESIAN_POINT('',(-9.706001632345,-32.44406021953,57.471));
#493 = VECTOR('',#494,1.);
#494 = DIRECTION('',(0.,2.21E-15,1.));
#495 = CYLINDRICAL_SURFACE('',#496,4.995001632345);
#496 = AXIS2_PLACEMENT_3D('',#497,#498,#499);
#497 = CARTESIAN_POINT('',(-9.706001632345,-37.43906185187,57.471));
#498 = DIRECTION('',(0.,-2.21E-15,-1.));
#499 = DIRECTION('',(1.,0.,0.));
#500 = ADVANCED_FACE('',(#501),#625,.F.);
#501 = FACE_BOUND('',#502,.F.);
#502 = EDGE_LOOP('',(#503,#530,#536,#537,#538,#546,#555,#574,#582,#601,
    #610,#618));
#503 = ORIENTED_EDGE('',*,*,#504,.F.);
#504 = EDGE_CURVE('',#505,#507,#509,.T.);
#505 = VERTEX_POINT('',#506);
#506 = CARTESIAN_POINT('',(-9.715998367655,-32.44406021953,65.471));
#507 = VERTEX_POINT('',#508);
#508 = CARTESIAN_POINT('',(-14.711,-37.43906185187,65.574127419452));
#509 = B_SPLINE_CURVE_WITH_KNOTS('',7,(#510,#511,#512,#513,#514,#515,
    #516,#517,#518,#519,#520,#521,#522,#523,#524,#525,#526,#527,#528,
    #529),.UNSPECIFIED.,.F.,.F.,(8,6,6,8),(0.,0.512726025371,
    0.680248888315,1.),.UNSPECIFIED.);
#510 = CARTESIAN_POINT('',(-9.716000356257,-32.44406021953,65.471));
#511 = CARTESIAN_POINT('',(-10.21139513352,-32.44406041676,65.471));
#512 = CARTESIAN_POINT('',(-10.70615293996,-32.50138178637,
    65.471000029072));
#513 = CARTESIAN_POINT('',(-11.1969000773,-32.61575777377,65.47099986296
    ));
#514 = CARTESIAN_POINT('',(-11.67996146043,-32.78873113217,
    65.471171266638));
#515 = CARTESIAN_POINT('',(-12.15022463999,-33.02318236164,
    65.47185058792));
#516 = CARTESIAN_POINT('',(-12.60041814626,-33.32300363667,
    65.473628416591));
#517 = CARTESIAN_POINT('',(-13.15609975763,-33.81290326986,
    65.478681539218));
#518 = CARTESIAN_POINT('',(-13.28965073652,-33.94100774781,
    65.480143251154));
#519 = CARTESIAN_POINT('',(-13.41946099638,-34.07668076527,
    65.481854554464));
#520 = CARTESIAN_POINT('',(-13.5450443629,-34.22001986945,
    65.483851456018));
#521 = CARTESIAN_POINT('',(-13.66586914114,-34.37110397234,65.4861734567
    ));
#522 = CARTESIAN_POINT('',(-13.78135312285,-34.52998735,65.488863335414)
  );
#523 = CARTESIAN_POINT('',(-14.09987183209,-35.01488616325,
    65.497890774117));
#524 = CARTESIAN_POINT('',(-14.2895191208,-35.36525412337,
    65.505390659305));
#525 = CARTESIAN_POINT('',(-14.45141204861,-35.74451193372,
    65.51475856342));
#526 = CARTESIAN_POINT('',(-14.57875505771,-36.14787516361,
    65.526260844045));
#527 = CARTESIAN_POINT('',(-14.66641250593,-36.5693558755,
    65.540044566009));
#528 = CARTESIAN_POINT('',(-14.711,-37.00214215732,65.55607830344));
#529 = CARTESIAN_POINT('',(-14.711,-37.43906185187,65.574127419452));
#530 = ORIENTED_EDGE('',*,*,#531,.T.);
#531 = EDGE_CURVE('',#505,#472,#532,.T.);
#532 = LINE('',#533,#534);
#533 = CARTESIAN_POINT('',(-14.711,-32.44406021953,65.471));
#534 = VECTOR('',#535,1.);
#535 = DIRECTION('',(1.,0.,0.));
#536 = ORIENTED_EDGE('',*,*,#471,.F.);
#537 = ORIENTED_EDGE('',*,*,#39,.T.);
#538 = ORIENTED_EDGE('',*,*,#539,.F.);
#539 = EDGE_CURVE('',#540,#32,#542,.T.);
#540 = VERTEX_POINT('',#541);
#541 = CARTESIAN_POINT('',(67.289,-65.33406021953,70.026099746446));
#542 = LINE('',#543,#544);
#543 = CARTESIAN_POINT('',(-14.711,-65.33406021953,70.026099746446));
#544 = VECTOR('',#545,1.);
#545 = DIRECTION('',(-1.,0.,0.));
#546 = ORIENTED_EDGE('',*,*,#547,.F.);
#547 = EDGE_CURVE('',#548,#540,#550,.T.);
#548 = VERTEX_POINT('',#549);
#549 = CARTESIAN_POINT('',(67.289,-37.4593116438,65.574965635195));
#550 = CIRCLE('',#551,121.01826644405);
#551 = AXIS2_PLACEMENT_3D('',#552,#553,#554);
#552 = CARTESIAN_POINT('',(67.289,-32.44406757908,186.48926644405));
#553 = DIRECTION('',(-1.,0.,0.));
#554 = DIRECTION('',(0.,-1.,0.));
#555 = ORIENTED_EDGE('',*,*,#556,.F.);
#556 = EDGE_CURVE('',#557,#548,#559,.T.);
#557 = VERTEX_POINT('',#558);
#558 = CARTESIAN_POINT('',(72.034251424268,-32.71406021953,
    65.471301178156));
#559 = B_SPLINE_CURVE_WITH_KNOTS('',7,(#560,#561,#562,#563,#564,#565,
    #566,#567,#568,#569,#570,#571,#572,#573),.UNSPECIFIED.,.F.,.F.,(8,6,
    8),(0.,0.515417094213,1.),.UNSPECIFIED.);
#560 = CARTESIAN_POINT('',(72.034251424268,-32.71406021953,
    65.471301178156));
#561 = CARTESIAN_POINT('',(71.563588207571,-32.71406021953,
    65.471301178156));
#562 = CARTESIAN_POINT('',(71.093522645659,-32.7685241737,
    65.471422717368));
#563 = CARTESIAN_POINT('',(70.627274058172,-32.87720191549,
    65.471665034523));
#564 = CARTESIAN_POINT('',(70.168348208659,-33.04155336607,
    65.47218645737));
#565 = CARTESIAN_POINT('',(69.721612710237,-33.26430118212,
    65.473296757697));
#566 = CARTESIAN_POINT('',(69.293979238788,-33.54912149657,
    65.475537080568));
#567 = CARTESIAN_POINT('',(68.522140489552,-34.22958888821,
    65.48372329469));
#568 = CARTESIAN_POINT('',(68.163327004919,-34.62741416227,
    65.489557673446));
#569 = CARTESIAN_POINT('',(67.842053607812,-35.09341631229,
    65.498040199899));
#570 = CARTESIAN_POINT('',(67.578223600322,-35.62204363392,
    65.510126301162));
#571 = CARTESIAN_POINT('',(67.389121909266,-36.20274228308,
    65.526782106734));
#572 = CARTESIAN_POINT('',(67.289,-36.82116525162,65.548496806575));
#573 = CARTESIAN_POINT('',(67.289,-37.4593116438,65.574965635195));
#574 = ORIENTED_EDGE('',*,*,#575,.F.);
#575 = EDGE_CURVE('',#576,#557,#578,.T.);
#576 = VERTEX_POINT('',#577);
#577 = CARTESIAN_POINT('',(72.043748575732,-32.71406021953,
    65.471301178156));
#578 = LINE('',#579,#580);
#579 = CARTESIAN_POINT('',(-14.711,-32.71406021953,65.471301178156));
#580 = VECTOR('',#581,1.);
#581 = DIRECTION('',(-1.,0.,0.));
#582 = ORIENTED_EDGE('',*,*,#583,.F.);
#583 = EDGE_CURVE('',#584,#576,#586,.T.);
#584 = VERTEX_POINT('',#585);
#585 = CARTESIAN_POINT('',(76.789,-37.4593116438,65.574965635195));
#586 = B_SPLINE_CURVE_WITH_KNOTS('',7,(#587,#588,#589,#590,#591,#592,
    #593,#594,#595,#596,#597,#598,#599,#600),.UNSPECIFIED.,.F.,.F.,(8,6,
    8),(0.,0.44450236131,1.),.UNSPECIFIED.);
#587 = CARTESIAN_POINT('',(76.789,-37.4593116438,65.574965635195));
#588 = CARTESIAN_POINT('',(76.789,-36.87614572255,65.550777268676));
#589 = CARTESIAN_POINT('',(76.705388128787,-36.30740552615,
    65.530474257386));
#590 = CARTESIAN_POINT('',(76.545605084509,-35.767845997,65.514373043311
    ));
#591 = CARTESIAN_POINT('',(76.320249220435,-35.27000897767,
    65.502211833505));
#592 = CARTESIAN_POINT('',(76.042849449813,-34.82354811797,
    65.493307665391));
#593 = CARTESIAN_POINT('',(75.729600263839,-34.43436441083,
    65.486916256686));
#594 = CARTESIAN_POINT('',(74.986179629136,-33.69094377613,
    65.476718797676));
#595 = CARTESIAN_POINT('',(74.533151260497,-33.35650980235,
    65.473776057747));
#596 = CARTESIAN_POINT('',(74.055224601939,-33.09588956219,
    65.472363463377));
#597 = CARTESIAN_POINT('',(73.56178632513,-32.90414628461,65.47172497286
    ));
#598 = CARTESIAN_POINT('',(73.05924066239,-32.77755221866,
    65.471442903149));
#599 = CARTESIAN_POINT('',(72.551925235942,-32.71406021953,
    65.471301178156));
#600 = CARTESIAN_POINT('',(72.043748575732,-32.71406021953,
    65.471301178156));
#601 = ORIENTED_EDGE('',*,*,#602,.T.);
#602 = EDGE_CURVE('',#584,#603,#605,.T.);
#603 = VERTEX_POINT('',#604);
#604 = CARTESIAN_POINT('',(76.789,-75.71406021953,73.471));
#605 = CIRCLE('',#606,121.01826644405);
#606 = AXIS2_PLACEMENT_3D('',#607,#608,#609);
#607 = CARTESIAN_POINT('',(76.789,-32.44406757908,186.48926644405));
#608 = DIRECTION('',(-1.,0.,0.));
#609 = DIRECTION('',(0.,-1.,0.));
#610 = ORIENTED_EDGE('',*,*,#611,.F.);
#611 = EDGE_CURVE('',#612,#603,#614,.T.);
#612 = VERTEX_POINT('',#613);
#613 = CARTESIAN_POINT('',(-14.711,-75.71406021953,73.471));
#614 = LINE('',#615,#616);
#615 = CARTESIAN_POINT('',(-14.711,-75.71406021953,73.471));
#616 = VECTOR('',#617,1.);
#617 = DIRECTION('',(1.,0.,0.));
#618 = ORIENTED_EDGE('',*,*,#619,.F.);
#619 = EDGE_CURVE('',#507,#612,#620,.T.);
#620 = CIRCLE('',#621,121.01826644405);
#621 = AXIS2_PLACEMENT_3D('',#622,#623,#624);
#622 = CARTESIAN_POINT('',(-14.711,-32.44406757908,186.48926644405));
#623 = DIRECTION('',(-1.,0.,0.));
#624 = DIRECTION('',(0.,-1.,0.));
#625 = CYLINDRICAL_SURFACE('',#626,121.01826644405);
#626 = AXIS2_PLACEMENT_3D('',#627,#628,#629);
#627 = CARTESIAN_POINT('',(-14.711,-32.44406757908,186.48926644405));
#628 = DIRECTION('',(-1.,0.,0.));
#629 = DIRECTION('',(0.,-1.,0.));
#630 = ADVANCED_FACE('',(#631),#642,.F.);
#631 = FACE_BOUND('',#632,.F.);
#632 = EDGE_LOOP('',(#633,#634,#640,#641));
#633 = ORIENTED_EDGE('',*,*,#97,.F.);
#634 = ORIENTED_EDGE('',*,*,#635,.F.);
#635 = EDGE_CURVE('',#540,#98,#636,.T.);
#636 = LINE('',#637,#638);
#637 = CARTESIAN_POINT('',(67.289,-65.33406021953,57.471));
#638 = VECTOR('',#639,1.);
#639 = DIRECTION('',(0.,-2.21E-15,-1.));
#640 = ORIENTED_EDGE('',*,*,#539,.T.);
#641 = ORIENTED_EDGE('',*,*,#31,.F.);
#642 = PLANE('',#643);
#643 = AXIS2_PLACEMENT_3D('',#644,#645,#646);
#644 = CARTESIAN_POINT('',(76.789,-65.33406021953,57.471));
#645 = DIRECTION('',(0.,-1.,2.21E-15));
#646 = DIRECTION('',(-1.,0.,0.));
#647 = ADVANCED_FACE('',(#648),#664,.T.);
#648 = FACE_BOUND('',#649,.T.);
#649 = EDGE_LOOP('',(#650,#651,#657,#658));
#650 = ORIENTED_EDGE('',*,*,#62,.T.);
#651 = ORIENTED_EDGE('',*,*,#652,.T.);
#652 = EDGE_CURVE('',#65,#612,#653,.T.);
#653 = LINE('',#654,#655);
#654 = CARTESIAN_POINT('',(-14.711,-75.71406021953,57.471));
#655 = VECTOR('',#656,1.);
#656 = DIRECTION('',(0.,2.21E-15,1.));
#657 = ORIENTED_EDGE('',*,*,#619,.F.);
#658 = ORIENTED_EDGE('',*,*,#659,.F.);
#659 = EDGE_CURVE('',#63,#507,#660,.T.);
#660 = LINE('',#661,#662);
#661 = CARTESIAN_POINT('',(-14.711,-37.43906185187,57.471));
#662 = VECTOR('',#663,1.);
#663 = DIRECTION('',(0.,2.21E-15,1.));
#664 = PLANE('',#665);
#665 = AXIS2_PLACEMENT_3D('',#666,#667,#668);
#666 = CARTESIAN_POINT('',(-14.711,-56.5765610357,65.471));
#667 = DIRECTION('',(-1.,-0.,-0.));
#668 = DIRECTION('',(0.,0.,-1.));
#669 = ADVANCED_FACE('',(#670),#681,.T.);
#670 = FACE_BOUND('',#671,.F.);
#671 = EDGE_LOOP('',(#672,#673,#679,#680));
#672 = ORIENTED_EDGE('',*,*,#72,.F.);
#673 = ORIENTED_EDGE('',*,*,#674,.T.);
#674 = EDGE_CURVE('',#73,#505,#675,.T.);
#675 = LINE('',#676,#677);
#676 = CARTESIAN_POINT('',(-9.715998367655,-32.44406021953,57.471));
#677 = VECTOR('',#678,1.);
#678 = DIRECTION('',(0.,2.21E-15,1.));
#679 = ORIENTED_EDGE('',*,*,#504,.T.);
#680 = ORIENTED_EDGE('',*,*,#659,.F.);
#681 = CYLINDRICAL_SURFACE('',#682,4.995001632345);
#682 = AXIS2_PLACEMENT_3D('',#683,#684,#685);
#683 = CARTESIAN_POINT('',(-9.715998367655,-37.43906185187,57.471));
#684 = DIRECTION('',(0.,-2.21E-15,-1.));
#685 = DIRECTION('',(1.,0.,0.));
#686 = ADVANCED_FACE('',(#687),#698,.T.);
#687 = FACE_BOUND('',#688,.T.);
#688 = EDGE_LOOP('',(#689,#690,#696,#697));
#689 = ORIENTED_EDGE('',*,*,#147,.T.);
#690 = ORIENTED_EDGE('',*,*,#691,.T.);
#691 = EDGE_CURVE('',#140,#603,#692,.T.);
#692 = LINE('',#693,#694);
#693 = CARTESIAN_POINT('',(76.789,-75.71406021953,57.471));
#694 = VECTOR('',#695,1.);
#695 = DIRECTION('',(0.,2.21E-15,1.));
#696 = ORIENTED_EDGE('',*,*,#611,.F.);
#697 = ORIENTED_EDGE('',*,*,#652,.F.);
#698 = PLANE('',#699);
#699 = AXIS2_PLACEMENT_3D('',#700,#701,#702);
#700 = CARTESIAN_POINT('',(31.039,-75.71406021953,65.471));
#701 = DIRECTION('',(0.,-1.,1.89E-15));
#702 = DIRECTION('',(0.,-1.89E-15,-1.));
#703 = ADVANCED_FACE('',(#704),#710,.F.);
#704 = FACE_BOUND('',#705,.F.);
#705 = EDGE_LOOP('',(#706,#707,#708,#709));
#706 = ORIENTED_EDGE('',*,*,#81,.F.);
#707 = ORIENTED_EDGE('',*,*,#490,.T.);
#708 = ORIENTED_EDGE('',*,*,#531,.F.);
#709 = ORIENTED_EDGE('',*,*,#674,.F.);
#710 = PLANE('',#711);
#711 = AXIS2_PLACEMENT_3D('',#712,#713,#714);
#712 = CARTESIAN_POINT('',(-9.706001632345,-32.44406021953,57.471));
#713 = DIRECTION('',(0.,-1.,2.21E-15));
#714 = DIRECTION('',(-1.,0.,0.));
#715 = ADVANCED_FACE('',(#716),#727,.T.);
#716 = FACE_BOUND('',#717,.T.);
#717 = EDGE_LOOP('',(#718,#719,#725,#726));
#718 = ORIENTED_EDGE('',*,*,#139,.T.);
#719 = ORIENTED_EDGE('',*,*,#720,.T.);
#720 = EDGE_CURVE('',#131,#584,#721,.T.);
#721 = LINE('',#722,#723);
#722 = CARTESIAN_POINT('',(76.789,-37.4593116438,57.471));
#723 = VECTOR('',#724,1.);
#724 = DIRECTION('',(0.,2.21E-15,1.));
#725 = ORIENTED_EDGE('',*,*,#602,.T.);
#726 = ORIENTED_EDGE('',*,*,#691,.F.);
#727 = PLANE('',#728);
#728 = AXIS2_PLACEMENT_3D('',#729,#730,#731);
#729 = CARTESIAN_POINT('',(76.789,-56.58668593166,65.471));
#730 = DIRECTION('',(1.,-2.333100038555E-16,0.));
#731 = DIRECTION('',(2.333100038555E-16,1.,0.));
#732 = ADVANCED_FACE('',(#733),#744,.T.);
#733 = FACE_BOUND('',#734,.F.);
#734 = EDGE_LOOP('',(#735,#736,#737,#738));
#735 = ORIENTED_EDGE('',*,*,#130,.F.);
#736 = ORIENTED_EDGE('',*,*,#720,.T.);
#737 = ORIENTED_EDGE('',*,*,#583,.T.);
#738 = ORIENTED_EDGE('',*,*,#739,.F.);
#739 = EDGE_CURVE('',#123,#576,#740,.T.);
#740 = LINE('',#741,#742);
#741 = CARTESIAN_POINT('',(72.043748575732,-32.71406021953,57.471));
#742 = VECTOR('',#743,1.);
#743 = DIRECTION('',(0.,2.21E-15,1.));
#744 = CYLINDRICAL_SURFACE('',#745,4.745251424268);
#745 = AXIS2_PLACEMENT_3D('',#746,#747,#748);
#746 = CARTESIAN_POINT('',(72.043748575732,-37.4593116438,57.471));
#747 = DIRECTION('',(0.,-2.21E-15,-1.));
#748 = DIRECTION('',(1.,0.,0.));
#749 = ADVANCED_FACE('',(#750),#761,.F.);
#750 = FACE_BOUND('',#751,.F.);
#751 = EDGE_LOOP('',(#752,#753,#754,#755));
#752 = ORIENTED_EDGE('',*,*,#122,.F.);
#753 = ORIENTED_EDGE('',*,*,#739,.T.);
#754 = ORIENTED_EDGE('',*,*,#575,.T.);
#755 = ORIENTED_EDGE('',*,*,#756,.F.);
#756 = EDGE_CURVE('',#114,#557,#757,.T.);
#757 = LINE('',#758,#759);
#758 = CARTESIAN_POINT('',(72.034251424268,-32.71406021953,57.471));
#759 = VECTOR('',#760,1.);
#760 = DIRECTION('',(0.,2.21E-15,1.));
#761 = PLANE('',#762);
#762 = AXIS2_PLACEMENT_3D('',#763,#764,#765);
#763 = CARTESIAN_POINT('',(72.043748575732,-32.71406021953,57.471));
#764 = DIRECTION('',(0.,-1.,2.21E-15));
#765 = DIRECTION('',(-1.,0.,0.));
#766 = ADVANCED_FACE('',(#767),#778,.T.);
#767 = FACE_BOUND('',#768,.F.);
#768 = EDGE_LOOP('',(#769,#770,#771,#772));
#769 = ORIENTED_EDGE('',*,*,#113,.F.);
#770 = ORIENTED_EDGE('',*,*,#756,.T.);
#771 = ORIENTED_EDGE('',*,*,#556,.T.);
#772 = ORIENTED_EDGE('',*,*,#773,.F.);
#773 = EDGE_CURVE('',#106,#548,#774,.T.);
#774 = LINE('',#775,#776);
#775 = CARTESIAN_POINT('',(67.289,-37.4593116438,57.471));
#776 = VECTOR('',#777,1.);
#777 = DIRECTION('',(0.,2.21E-15,1.));
#778 = CYLINDRICAL_SURFACE('',#779,4.745251424268);
#779 = AXIS2_PLACEMENT_3D('',#780,#781,#782);
#780 = CARTESIAN_POINT('',(72.034251424268,-37.4593116438,57.471));
#781 = DIRECTION('',(0.,-2.21E-15,-1.));
#782 = DIRECTION('',(1.,0.,0.));
#783 = ADVANCED_FACE('',(#784),#790,.F.);
#784 = FACE_BOUND('',#785,.F.);
#785 = EDGE_LOOP('',(#786,#787,#788,#789));
#786 = ORIENTED_EDGE('',*,*,#105,.F.);
#787 = ORIENTED_EDGE('',*,*,#773,.T.);
#788 = ORIENTED_EDGE('',*,*,#547,.T.);
#789 = ORIENTED_EDGE('',*,*,#635,.T.);
#790 = PLANE('',#791);
#791 = AXIS2_PLACEMENT_3D('',#792,#793,#794);
#792 = CARTESIAN_POINT('',(67.289,-37.4593116438,57.471));
#793 = DIRECTION('',(1.,0.,0.));
#794 = DIRECTION('',(0.,-1.,2.21E-15));
#795 = ADVANCED_FACE('',(#796),#831,.F.);
#796 = FACE_BOUND('',#797,.F.);
#797 = EDGE_LOOP('',(#798,#806,#815,#824,#830));
#798 = ORIENTED_EDGE('',*,*,#799,.T.);
#799 = EDGE_CURVE('',#158,#800,#802,.T.);
#800 = VERTEX_POINT('',#801);
#801 = CARTESIAN_POINT('',(73.545714036609,-37.86661962654,64.32));
#802 = LINE('',#803,#804);
#803 = CARTESIAN_POINT('',(73.545714036609,-37.86661962654,64.32));
#804 = VECTOR('',#805,1.);
#805 = DIRECTION('',(8.659560562355E-17,8.659560562355E-17,1.));
#806 = ORIENTED_EDGE('',*,*,#807,.T.);
#807 = EDGE_CURVE('',#800,#808,#810,.T.);
#808 = VERTEX_POINT('',#809);
#809 = CARTESIAN_POINT('',(72.05,-39.01,64.32));
#810 = CIRCLE('',#811,1.55);
#811 = AXIS2_PLACEMENT_3D('',#812,#813,#814);
#812 = CARTESIAN_POINT('',(72.05,-37.46,64.32));
#813 = DIRECTION('',(-8.659560562355E-17,-8.659560562355E-17,-1.));
#814 = DIRECTION('',(-2.22044604925E-16,-1.,8.659560562355E-17));
#815 = ORIENTED_EDGE('',*,*,#816,.T.);
#816 = EDGE_CURVE('',#808,#817,#819,.T.);
#817 = VERTEX_POINT('',#818);
#818 = CARTESIAN_POINT('',(71.654286060103,-38.95863620594,64.32));
#819 = CIRCLE('',#820,1.55);
#820 = AXIS2_PLACEMENT_3D('',#821,#822,#823);
#821 = CARTESIAN_POINT('',(72.05,-37.46,64.32));
#822 = DIRECTION('',(-8.659560562355E-17,-8.659560562355E-17,-1.));
#823 = DIRECTION('',(-2.22044604925E-16,-1.,8.659560562355E-17));
#824 = ORIENTED_EDGE('',*,*,#825,.F.);
#825 = EDGE_CURVE('',#156,#817,#826,.T.);
#826 = LINE('',#827,#828);
#827 = CARTESIAN_POINT('',(71.654286060103,-38.95863620594,64.32));
#828 = VECTOR('',#829,1.);
#829 = DIRECTION('',(8.659560562355E-17,8.659560562355E-17,1.));
#830 = ORIENTED_EDGE('',*,*,#155,.T.);
#831 = CYLINDRICAL_SURFACE('',#832,1.55);
#832 = AXIS2_PLACEMENT_3D('',#833,#834,#835);
#833 = CARTESIAN_POINT('',(72.05,-37.46,64.32));
#834 = DIRECTION('',(8.659560562355E-17,8.659560562355E-17,1.));
#835 = DIRECTION('',(-2.22044604925E-16,-1.,8.659560562355E-17));
#836 = ADVANCED_FACE('',(#837),#855,.T.);
#837 = FACE_BOUND('',#838,.T.);
#838 = EDGE_LOOP('',(#839,#847,#848,#849));
#839 = ORIENTED_EDGE('',*,*,#840,.F.);
#840 = EDGE_CURVE('',#817,#841,#843,.T.);
#841 = VERTEX_POINT('',#842);
#842 = CARTESIAN_POINT('',(70.950000096713,-39.36525594416,64.32));
#843 = LINE('',#844,#845);
#844 = CARTESIAN_POINT('',(74.25,-37.45999988832,64.32));
#845 = VECTOR('',#846,1.);
#846 = DIRECTION('',(-0.866025378404,-0.50000004396,1.182917987468E-16)
  );
#847 = ORIENTED_EDGE('',*,*,#825,.F.);
#848 = ORIENTED_EDGE('',*,*,#224,.F.);
#849 = ORIENTED_EDGE('',*,*,#850,.F.);
#850 = EDGE_CURVE('',#841,#217,#851,.T.);
#851 = LINE('',#852,#853);
#852 = CARTESIAN_POINT('',(70.950000096713,-39.36525594416,64.32));
#853 = VECTOR('',#854,1.);
#854 = DIRECTION('',(-8.659560562355E-17,-8.659560562355E-17,-1.));
#855 = PLANE('',#856);
#856 = AXIS2_PLACEMENT_3D('',#857,#858,#859);
#857 = CARTESIAN_POINT('',(74.25,-37.45999988832,64.32));
#858 = DIRECTION('',(-0.50000004396,0.866025378404,-3.169618550974E-17)
  );
#859 = DIRECTION('',(-0.866025378404,-0.50000004396,1.182917987468E-16)
  );
#860 = ADVANCED_FACE('',(#861),#879,.T.);
#861 = FACE_BOUND('',#862,.T.);
#862 = EDGE_LOOP('',(#863,#871,#877,#878));
#863 = ORIENTED_EDGE('',*,*,#864,.F.);
#864 = EDGE_CURVE('',#865,#800,#867,.T.);
#865 = VERTEX_POINT('',#866);
#866 = CARTESIAN_POINT('',(74.25,-37.45999988832,64.32));
#867 = LINE('',#868,#869);
#868 = CARTESIAN_POINT('',(74.25,-37.45999988832,64.32));
#869 = VECTOR('',#870,1.);
#870 = DIRECTION('',(-0.866025378404,-0.50000004396,1.182917987468E-16)
  );
#871 = ORIENTED_EDGE('',*,*,#872,.T.);
#872 = EDGE_CURVE('',#865,#167,#873,.T.);
#873 = LINE('',#874,#875);
#874 = CARTESIAN_POINT('',(74.25,-37.45999988832,64.32));
#875 = VECTOR('',#876,1.);
#876 = DIRECTION('',(-8.659560562355E-17,-8.659560562355E-17,-1.));
#877 = ORIENTED_EDGE('',*,*,#166,.F.);
#878 = ORIENTED_EDGE('',*,*,#799,.T.);
#879 = PLANE('',#880);
#880 = AXIS2_PLACEMENT_3D('',#881,#882,#883);
#881 = CARTESIAN_POINT('',(74.25,-37.45999988832,64.32));
#882 = DIRECTION('',(-0.50000004396,0.866025378404,-3.169618550974E-17)
  );
#883 = DIRECTION('',(-0.866025378404,-0.50000004396,1.182917987468E-16)
  );
#884 = ADVANCED_FACE('',(#885),#903,.T.);
#885 = FACE_BOUND('',#886,.T.);
#886 = EDGE_LOOP('',(#887,#895,#896,#897));
#887 = ORIENTED_EDGE('',*,*,#888,.F.);
#888 = EDGE_CURVE('',#841,#889,#891,.T.);
#889 = VERTEX_POINT('',#890);
#890 = CARTESIAN_POINT('',(70.950000055432,-38.55201653922,64.32));
#891 = LINE('',#892,#893);
#892 = CARTESIAN_POINT('',(70.950000096713,-39.36525594416,64.32));
#893 = VECTOR('',#894,1.);
#894 = DIRECTION('',(-5.076101552796E-08,1.,-8.659560122787E-17));
#895 = ORIENTED_EDGE('',*,*,#850,.T.);
#896 = ORIENTED_EDGE('',*,*,#216,.F.);
#897 = ORIENTED_EDGE('',*,*,#898,.T.);
#898 = EDGE_CURVE('',#208,#889,#899,.T.);
#899 = LINE('',#900,#901);
#900 = CARTESIAN_POINT('',(70.950000055432,-38.55201653922,64.32));
#901 = VECTOR('',#902,1.);
#902 = DIRECTION('',(8.659560562355E-17,8.659560562355E-17,1.));
#903 = PLANE('',#904);
#904 = AXIS2_PLACEMENT_3D('',#905,#906,#907);
#905 = CARTESIAN_POINT('',(70.950000096713,-39.36525594416,64.32));
#906 = DIRECTION('',(1.,5.076101552796E-08,-8.659561001923E-17));
#907 = DIRECTION('',(-5.076101552796E-08,1.,-8.659560122787E-17));
#908 = ADVANCED_FACE('',(#909),#927,.T.);
#909 = FACE_BOUND('',#910,.T.);
#910 = EDGE_LOOP('',(#911,#919,#925,#926));
#911 = ORIENTED_EDGE('',*,*,#912,.F.);
#912 = EDGE_CURVE('',#913,#865,#915,.T.);
#913 = VERTEX_POINT('',#914);
#914 = CARTESIAN_POINT('',(73.545713995328,-37.0533802216,64.32));
#915 = LINE('',#916,#917);
#916 = CARTESIAN_POINT('',(70.949999903287,-35.55474416751,64.32));
#917 = VECTOR('',#918,1.);
#918 = DIRECTION('',(0.866025429165,-0.49999995604,-3.16961975189E-17));
#919 = ORIENTED_EDGE('',*,*,#920,.F.);
#920 = EDGE_CURVE('',#175,#913,#921,.T.);
#921 = LINE('',#922,#923);
#922 = CARTESIAN_POINT('',(73.545713995328,-37.0533802216,64.32));
#923 = VECTOR('',#924,1.);
#924 = DIRECTION('',(8.659560562355E-17,8.659560562355E-17,1.));
#925 = ORIENTED_EDGE('',*,*,#174,.F.);
#926 = ORIENTED_EDGE('',*,*,#872,.F.);
#927 = PLANE('',#928);
#928 = AXIS2_PLACEMENT_3D('',#929,#930,#931);
#929 = CARTESIAN_POINT('',(70.949999903287,-35.55474416751,64.32));
#930 = DIRECTION('',(-0.49999995604,-0.866025429165,1.182917955289E-16)
  );
#931 = DIRECTION('',(0.866025429165,-0.49999995604,-3.16961975189E-17));
#932 = ADVANCED_FACE('',(#933),#952,.F.);
#933 = FACE_BOUND('',#934,.F.);
#934 = EDGE_LOOP('',(#935,#943,#944,#945));
#935 = ORIENTED_EDGE('',*,*,#936,.F.);
#936 = EDGE_CURVE('',#200,#937,#939,.T.);
#937 = VERTEX_POINT('',#938);
#938 = CARTESIAN_POINT('',(70.949999944568,-36.36798357244,64.32));
#939 = LINE('',#940,#941);
#940 = CARTESIAN_POINT('',(70.949999944568,-36.36798357244,64.32));
#941 = VECTOR('',#942,1.);
#942 = DIRECTION('',(8.659560562355E-17,8.659560562355E-17,1.));
#943 = ORIENTED_EDGE('',*,*,#207,.T.);
#944 = ORIENTED_EDGE('',*,*,#898,.T.);
#945 = ORIENTED_EDGE('',*,*,#946,.T.);
#946 = EDGE_CURVE('',#889,#937,#947,.T.);
#947 = CIRCLE('',#948,1.55);
#948 = AXIS2_PLACEMENT_3D('',#949,#950,#951);
#949 = CARTESIAN_POINT('',(72.05,-37.46,64.32));
#950 = DIRECTION('',(-8.659560562355E-17,-8.659560562355E-17,-1.));
#951 = DIRECTION('',(-2.22044604925E-16,-1.,8.659560562355E-17));
#952 = CYLINDRICAL_SURFACE('',#953,1.55);
#953 = AXIS2_PLACEMENT_3D('',#954,#955,#956);
#954 = CARTESIAN_POINT('',(72.05,-37.46,64.32));
#955 = DIRECTION('',(8.659560562355E-17,8.659560562355E-17,1.));
#956 = DIRECTION('',(-2.22044604925E-16,-1.,8.659560562355E-17));
#957 = ADVANCED_FACE('',(#958),#977,.F.);
#958 = FACE_BOUND('',#959,.F.);
#959 = EDGE_LOOP('',(#960,#961,#969,#976));
#960 = ORIENTED_EDGE('',*,*,#182,.T.);
#961 = ORIENTED_EDGE('',*,*,#962,.T.);
#962 = EDGE_CURVE('',#183,#963,#965,.T.);
#963 = VERTEX_POINT('',#964);
#964 = CARTESIAN_POINT('',(71.654285907959,-35.96136383422,64.32));
#965 = LINE('',#966,#967);
#966 = CARTESIAN_POINT('',(71.654285907959,-35.96136383422,64.32));
#967 = VECTOR('',#968,1.);
#968 = DIRECTION('',(8.659560562355E-17,8.659560562355E-17,1.));
#969 = ORIENTED_EDGE('',*,*,#970,.T.);
#970 = EDGE_CURVE('',#963,#913,#971,.T.);
#971 = CIRCLE('',#972,1.55);
#972 = AXIS2_PLACEMENT_3D('',#973,#974,#975);
#973 = CARTESIAN_POINT('',(72.05,-37.46,64.32));
#974 = DIRECTION('',(-8.659560562355E-17,-8.659560562355E-17,-1.));
#975 = DIRECTION('',(-2.22044604925E-16,-1.,8.659560562355E-17));
#976 = ORIENTED_EDGE('',*,*,#920,.F.);
#977 = CYLINDRICAL_SURFACE('',#978,1.55);
#978 = AXIS2_PLACEMENT_3D('',#979,#980,#981);
#979 = CARTESIAN_POINT('',(72.05,-37.46,64.32));
#980 = DIRECTION('',(8.659560562355E-17,8.659560562355E-17,1.));
#981 = DIRECTION('',(-2.22044604925E-16,-1.,8.659560562355E-17));
#982 = ADVANCED_FACE('',(#983),#1001,.T.);
#983 = FACE_BOUND('',#984,.T.);
#984 = EDGE_LOOP('',(#985,#993,#994,#995));
#985 = ORIENTED_EDGE('',*,*,#986,.F.);
#986 = EDGE_CURVE('',#937,#987,#989,.T.);
#987 = VERTEX_POINT('',#988);
#988 = CARTESIAN_POINT('',(70.949999903287,-35.55474416751,64.32));
#989 = LINE('',#990,#991);
#990 = CARTESIAN_POINT('',(70.950000096713,-39.36525594416,64.32));
#991 = VECTOR('',#992,1.);
#992 = DIRECTION('',(-5.076101552796E-08,1.,-8.659560122787E-17));
#993 = ORIENTED_EDGE('',*,*,#936,.F.);
#994 = ORIENTED_EDGE('',*,*,#199,.F.);
#995 = ORIENTED_EDGE('',*,*,#996,.F.);
#996 = EDGE_CURVE('',#987,#192,#997,.T.);
#997 = LINE('',#998,#999);
#998 = CARTESIAN_POINT('',(70.949999903287,-35.55474416751,64.32));
#999 = VECTOR('',#1000,1.);
#1000 = DIRECTION('',(-8.659560562355E-17,-8.659560562355E-17,-1.));
#1001 = PLANE('',#1002);
#1002 = AXIS2_PLACEMENT_3D('',#1003,#1004,#1005);
#1003 = CARTESIAN_POINT('',(70.950000096713,-39.36525594416,64.32));
#1004 = DIRECTION('',(1.,5.076101552796E-08,-8.659561001923E-17));
#1005 = DIRECTION('',(-5.076101552796E-08,1.,-8.659560122787E-17));
#1006 = ADVANCED_FACE('',(#1007),#1018,.T.);
#1007 = FACE_BOUND('',#1008,.T.);
#1008 = EDGE_LOOP('',(#1009,#1015,#1016,#1017));
#1009 = ORIENTED_EDGE('',*,*,#1010,.F.);
#1010 = EDGE_CURVE('',#987,#963,#1011,.T.);
#1011 = LINE('',#1012,#1013);
#1012 = CARTESIAN_POINT('',(70.949999903287,-35.55474416751,64.32));
#1013 = VECTOR('',#1014,1.);
#1014 = DIRECTION('',(0.866025429165,-0.49999995604,-3.16961975189E-17)
  );
#1015 = ORIENTED_EDGE('',*,*,#996,.T.);
#1016 = ORIENTED_EDGE('',*,*,#191,.F.);
#1017 = ORIENTED_EDGE('',*,*,#962,.T.);
#1018 = PLANE('',#1019);
#1019 = AXIS2_PLACEMENT_3D('',#1020,#1021,#1022);
#1020 = CARTESIAN_POINT('',(70.949999903287,-35.55474416751,64.32));
#1021 = DIRECTION('',(-0.49999995604,-0.866025429165,1.182917955289E-16)
  );
#1022 = DIRECTION('',(0.866025429165,-0.49999995604,-3.16961975189E-17)
  );
#1023 = ADVANCED_FACE('',(#1024),#1059,.F.);
#1024 = FACE_BOUND('',#1025,.F.);
#1025 = EDGE_LOOP('',(#1026,#1034,#1043,#1052,#1058));
#1026 = ORIENTED_EDGE('',*,*,#1027,.T.);
#1027 = EDGE_CURVE('',#235,#1028,#1030,.T.);
#1028 = VERTEX_POINT('',#1029);
#1029 = CARTESIAN_POINT('',(73.545714036609,-69.61661962654,64.32));
#1030 = LINE('',#1031,#1032);
#1031 = CARTESIAN_POINT('',(73.545714036609,-69.61661962654,64.32));
#1032 = VECTOR('',#1033,1.);
#1033 = DIRECTION('',(8.659560562355E-17,8.659560562355E-17,1.));
#1034 = ORIENTED_EDGE('',*,*,#1035,.T.);
#1035 = EDGE_CURVE('',#1028,#1036,#1038,.T.);
#1036 = VERTEX_POINT('',#1037);
#1037 = CARTESIAN_POINT('',(72.05,-70.76,64.32));
#1038 = CIRCLE('',#1039,1.55);
#1039 = AXIS2_PLACEMENT_3D('',#1040,#1041,#1042);
#1040 = CARTESIAN_POINT('',(72.05,-69.21,64.32));
#1041 = DIRECTION('',(-8.659560562355E-17,-8.659560562355E-17,-1.));
#1042 = DIRECTION('',(-2.22044604925E-16,-1.,8.659560562355E-17));
#1043 = ORIENTED_EDGE('',*,*,#1044,.T.);
#1044 = EDGE_CURVE('',#1036,#1045,#1047,.T.);
#1045 = VERTEX_POINT('',#1046);
#1046 = CARTESIAN_POINT('',(71.654286060103,-70.70863620594,64.32));
#1047 = CIRCLE('',#1048,1.55);
#1048 = AXIS2_PLACEMENT_3D('',#1049,#1050,#1051);
#1049 = CARTESIAN_POINT('',(72.05,-69.21,64.32));
#1050 = DIRECTION('',(-8.659560562355E-17,-8.659560562355E-17,-1.));
#1051 = DIRECTION('',(-2.22044604925E-16,-1.,8.659560562355E-17));
#1052 = ORIENTED_EDGE('',*,*,#1053,.F.);
#1053 = EDGE_CURVE('',#233,#1045,#1054,.T.);
#1054 = LINE('',#1055,#1056);
#1055 = CARTESIAN_POINT('',(71.654286060103,-70.70863620594,64.32));
#1056 = VECTOR('',#1057,1.);
#1057 = DIRECTION('',(8.659560562355E-17,8.659560562355E-17,1.));
#1058 = ORIENTED_EDGE('',*,*,#232,.T.);
#1059 = CYLINDRICAL_SURFACE('',#1060,1.55);
#1060 = AXIS2_PLACEMENT_3D('',#1061,#1062,#1063);
#1061 = CARTESIAN_POINT('',(72.05,-69.21,64.32));
#1062 = DIRECTION('',(8.659560562355E-17,8.659560562355E-17,1.));
#1063 = DIRECTION('',(-2.22044604925E-16,-1.,8.659560562355E-17));
#1064 = ADVANCED_FACE('',(#1065),#1083,.T.);
#1065 = FACE_BOUND('',#1066,.T.);
#1066 = EDGE_LOOP('',(#1067,#1075,#1076,#1077));
#1067 = ORIENTED_EDGE('',*,*,#1068,.F.);
#1068 = EDGE_CURVE('',#1045,#1069,#1071,.T.);
#1069 = VERTEX_POINT('',#1070);
#1070 = CARTESIAN_POINT('',(70.950000096713,-71.11525594416,64.32));
#1071 = LINE('',#1072,#1073);
#1072 = CARTESIAN_POINT('',(74.25,-69.20999988832,64.32));
#1073 = VECTOR('',#1074,1.);
#1074 = DIRECTION('',(-0.866025378404,-0.50000004396,1.182917987468E-16)
  );
#1075 = ORIENTED_EDGE('',*,*,#1053,.F.);
#1076 = ORIENTED_EDGE('',*,*,#301,.F.);
#1077 = ORIENTED_EDGE('',*,*,#1078,.F.);
#1078 = EDGE_CURVE('',#1069,#294,#1079,.T.);
#1079 = LINE('',#1080,#1081);
#1080 = CARTESIAN_POINT('',(70.950000096713,-71.11525594416,64.32));
#1081 = VECTOR('',#1082,1.);
#1082 = DIRECTION('',(-8.659560562355E-17,-8.659560562355E-17,-1.));
#1083 = PLANE('',#1084);
#1084 = AXIS2_PLACEMENT_3D('',#1085,#1086,#1087);
#1085 = CARTESIAN_POINT('',(74.25,-69.20999988832,64.32));
#1086 = DIRECTION('',(-0.50000004396,0.866025378404,-3.169618550974E-17)
  );
#1087 = DIRECTION('',(-0.866025378404,-0.50000004396,1.182917987468E-16)
  );
#1088 = ADVANCED_FACE('',(#1089),#1107,.T.);
#1089 = FACE_BOUND('',#1090,.T.);
#1090 = EDGE_LOOP('',(#1091,#1099,#1105,#1106));
#1091 = ORIENTED_EDGE('',*,*,#1092,.F.);
#1092 = EDGE_CURVE('',#1093,#1028,#1095,.T.);
#1093 = VERTEX_POINT('',#1094);
#1094 = CARTESIAN_POINT('',(74.25,-69.20999988832,64.32));
#1095 = LINE('',#1096,#1097);
#1096 = CARTESIAN_POINT('',(74.25,-69.20999988832,64.32));
#1097 = VECTOR('',#1098,1.);
#1098 = DIRECTION('',(-0.866025378404,-0.50000004396,1.182917987468E-16)
  );
#1099 = ORIENTED_EDGE('',*,*,#1100,.T.);
#1100 = EDGE_CURVE('',#1093,#244,#1101,.T.);
#1101 = LINE('',#1102,#1103);
#1102 = CARTESIAN_POINT('',(74.25,-69.20999988832,64.32));
#1103 = VECTOR('',#1104,1.);
#1104 = DIRECTION('',(-8.659560562355E-17,-8.659560562355E-17,-1.));
#1105 = ORIENTED_EDGE('',*,*,#243,.F.);
#1106 = ORIENTED_EDGE('',*,*,#1027,.T.);
#1107 = PLANE('',#1108);
#1108 = AXIS2_PLACEMENT_3D('',#1109,#1110,#1111);
#1109 = CARTESIAN_POINT('',(74.25,-69.20999988832,64.32));
#1110 = DIRECTION('',(-0.50000004396,0.866025378404,-3.169618550974E-17)
  );
#1111 = DIRECTION('',(-0.866025378404,-0.50000004396,1.182917987468E-16)
  );
#1112 = ADVANCED_FACE('',(#1113),#1131,.T.);
#1113 = FACE_BOUND('',#1114,.T.);
#1114 = EDGE_LOOP('',(#1115,#1123,#1124,#1125));
#1115 = ORIENTED_EDGE('',*,*,#1116,.F.);
#1116 = EDGE_CURVE('',#1069,#1117,#1119,.T.);
#1117 = VERTEX_POINT('',#1118);
#1118 = CARTESIAN_POINT('',(70.950000055432,-70.30201653922,64.32));
#1119 = LINE('',#1120,#1121);
#1120 = CARTESIAN_POINT('',(70.950000096713,-71.11525594416,64.32));
#1121 = VECTOR('',#1122,1.);
#1122 = DIRECTION('',(-5.076101552796E-08,1.,-8.659560122787E-17));
#1123 = ORIENTED_EDGE('',*,*,#1078,.T.);
#1124 = ORIENTED_EDGE('',*,*,#293,.F.);
#1125 = ORIENTED_EDGE('',*,*,#1126,.T.);
#1126 = EDGE_CURVE('',#285,#1117,#1127,.T.);
#1127 = LINE('',#1128,#1129);
#1128 = CARTESIAN_POINT('',(70.950000055432,-70.30201653922,64.32));
#1129 = VECTOR('',#1130,1.);
#1130 = DIRECTION('',(8.659560562355E-17,8.659560562355E-17,1.));
#1131 = PLANE('',#1132);
#1132 = AXIS2_PLACEMENT_3D('',#1133,#1134,#1135);
#1133 = CARTESIAN_POINT('',(70.950000096713,-71.11525594416,64.32));
#1134 = DIRECTION('',(1.,5.076101552796E-08,-8.659561001923E-17));
#1135 = DIRECTION('',(-5.076101552796E-08,1.,-8.659560122787E-17));
#1136 = ADVANCED_FACE('',(#1137),#1155,.T.);
#1137 = FACE_BOUND('',#1138,.T.);
#1138 = EDGE_LOOP('',(#1139,#1147,#1153,#1154));
#1139 = ORIENTED_EDGE('',*,*,#1140,.F.);
#1140 = EDGE_CURVE('',#1141,#1093,#1143,.T.);
#1141 = VERTEX_POINT('',#1142);
#1142 = CARTESIAN_POINT('',(73.545713995328,-68.8033802216,64.32));
#1143 = LINE('',#1144,#1145);
#1144 = CARTESIAN_POINT('',(70.949999903287,-67.30474416751,64.32));
#1145 = VECTOR('',#1146,1.);
#1146 = DIRECTION('',(0.866025429165,-0.49999995604,-3.16961975189E-17)
  );
#1147 = ORIENTED_EDGE('',*,*,#1148,.F.);
#1148 = EDGE_CURVE('',#252,#1141,#1149,.T.);
#1149 = LINE('',#1150,#1151);
#1150 = CARTESIAN_POINT('',(73.545713995328,-68.8033802216,64.32));
#1151 = VECTOR('',#1152,1.);
#1152 = DIRECTION('',(8.659560562355E-17,8.659560562355E-17,1.));
#1153 = ORIENTED_EDGE('',*,*,#251,.F.);
#1154 = ORIENTED_EDGE('',*,*,#1100,.F.);
#1155 = PLANE('',#1156);
#1156 = AXIS2_PLACEMENT_3D('',#1157,#1158,#1159);
#1157 = CARTESIAN_POINT('',(70.949999903287,-67.30474416751,64.32));
#1158 = DIRECTION('',(-0.49999995604,-0.866025429165,1.182917955289E-16)
  );
#1159 = DIRECTION('',(0.866025429165,-0.49999995604,-3.16961975189E-17)
  );
#1160 = ADVANCED_FACE('',(#1161),#1180,.F.);
#1161 = FACE_BOUND('',#1162,.F.);
#1162 = EDGE_LOOP('',(#1163,#1171,#1172,#1173));
#1163 = ORIENTED_EDGE('',*,*,#1164,.F.);
#1164 = EDGE_CURVE('',#277,#1165,#1167,.T.);
#1165 = VERTEX_POINT('',#1166);
#1166 = CARTESIAN_POINT('',(70.949999944568,-68.11798357244,64.32));
#1167 = LINE('',#1168,#1169);
#1168 = CARTESIAN_POINT('',(70.949999944568,-68.11798357244,64.32));
#1169 = VECTOR('',#1170,1.);
#1170 = DIRECTION('',(8.659560562355E-17,8.659560562355E-17,1.));
#1171 = ORIENTED_EDGE('',*,*,#284,.T.);
#1172 = ORIENTED_EDGE('',*,*,#1126,.T.);
#1173 = ORIENTED_EDGE('',*,*,#1174,.T.);
#1174 = EDGE_CURVE('',#1117,#1165,#1175,.T.);
#1175 = CIRCLE('',#1176,1.55);
#1176 = AXIS2_PLACEMENT_3D('',#1177,#1178,#1179);
#1177 = CARTESIAN_POINT('',(72.05,-69.21,64.32));
#1178 = DIRECTION('',(-8.659560562355E-17,-8.659560562355E-17,-1.));
#1179 = DIRECTION('',(-2.22044604925E-16,-1.,8.659560562355E-17));
#1180 = CYLINDRICAL_SURFACE('',#1181,1.55);
#1181 = AXIS2_PLACEMENT_3D('',#1182,#1183,#1184);
#1182 = CARTESIAN_POINT('',(72.05,-69.21,64.32));
#1183 = DIRECTION('',(8.659560562355E-17,8.659560562355E-17,1.));
#1184 = DIRECTION('',(-2.22044604925E-16,-1.,8.659560562355E-17));
#1185 = ADVANCED_FACE('',(#1186),#1205,.F.);
#1186 = FACE_BOUND('',#1187,.F.);
#1187 = EDGE_LOOP('',(#1188,#1189,#1197,#1204));
#1188 = ORIENTED_EDGE('',*,*,#259,.T.);
#1189 = ORIENTED_EDGE('',*,*,#1190,.T.);
#1190 = EDGE_CURVE('',#260,#1191,#1193,.T.);
#1191 = VERTEX_POINT('',#1192);
#1192 = CARTESIAN_POINT('',(71.654285907959,-67.71136383422,64.32));
#1193 = LINE('',#1194,#1195);
#1194 = CARTESIAN_POINT('',(71.654285907959,-67.71136383422,64.32));
#1195 = VECTOR('',#1196,1.);
#1196 = DIRECTION('',(8.659560562355E-17,8.659560562355E-17,1.));
#1197 = ORIENTED_EDGE('',*,*,#1198,.T.);
#1198 = EDGE_CURVE('',#1191,#1141,#1199,.T.);
#1199 = CIRCLE('',#1200,1.55);
#1200 = AXIS2_PLACEMENT_3D('',#1201,#1202,#1203);
#1201 = CARTESIAN_POINT('',(72.05,-69.21,64.32));
#1202 = DIRECTION('',(-8.659560562355E-17,-8.659560562355E-17,-1.));
#1203 = DIRECTION('',(-2.22044604925E-16,-1.,8.659560562355E-17));
#1204 = ORIENTED_EDGE('',*,*,#1148,.F.);
#1205 = CYLINDRICAL_SURFACE('',#1206,1.55);
#1206 = AXIS2_PLACEMENT_3D('',#1207,#1208,#1209);
#1207 = CARTESIAN_POINT('',(72.05,-69.21,64.32));
#1208 = DIRECTION('',(8.659560562355E-17,8.659560562355E-17,1.));
#1209 = DIRECTION('',(-2.22044604925E-16,-1.,8.659560562355E-17));
#1210 = ADVANCED_FACE('',(#1211),#1229,.T.);
#1211 = FACE_BOUND('',#1212,.T.);
#1212 = EDGE_LOOP('',(#1213,#1221,#1222,#1223));
#1213 = ORIENTED_EDGE('',*,*,#1214,.F.);
#1214 = EDGE_CURVE('',#1165,#1215,#1217,.T.);
#1215 = VERTEX_POINT('',#1216);
#1216 = CARTESIAN_POINT('',(70.949999903287,-67.30474416751,64.32));
#1217 = LINE('',#1218,#1219);
#1218 = CARTESIAN_POINT('',(70.950000096713,-71.11525594416,64.32));
#1219 = VECTOR('',#1220,1.);
#1220 = DIRECTION('',(-5.076101552796E-08,1.,-8.659560122787E-17));
#1221 = ORIENTED_EDGE('',*,*,#1164,.F.);
#1222 = ORIENTED_EDGE('',*,*,#276,.F.);
#1223 = ORIENTED_EDGE('',*,*,#1224,.F.);
#1224 = EDGE_CURVE('',#1215,#269,#1225,.T.);
#1225 = LINE('',#1226,#1227);
#1226 = CARTESIAN_POINT('',(70.949999903287,-67.30474416751,64.32));
#1227 = VECTOR('',#1228,1.);
#1228 = DIRECTION('',(-8.659560562355E-17,-8.659560562355E-17,-1.));
#1229 = PLANE('',#1230);
#1230 = AXIS2_PLACEMENT_3D('',#1231,#1232,#1233);
#1231 = CARTESIAN_POINT('',(70.950000096713,-71.11525594416,64.32));
#1232 = DIRECTION('',(1.,5.076101552796E-08,-8.659561001923E-17));
#1233 = DIRECTION('',(-5.076101552796E-08,1.,-8.659560122787E-17));
#1234 = ADVANCED_FACE('',(#1235),#1246,.T.);
#1235 = FACE_BOUND('',#1236,.T.);
#1236 = EDGE_LOOP('',(#1237,#1243,#1244,#1245));
#1237 = ORIENTED_EDGE('',*,*,#1238,.F.);
#1238 = EDGE_CURVE('',#1215,#1191,#1239,.T.);
#1239 = LINE('',#1240,#1241);
#1240 = CARTESIAN_POINT('',(70.949999903287,-67.30474416751,64.32));
#1241 = VECTOR('',#1242,1.);
#1242 = DIRECTION('',(0.866025429165,-0.49999995604,-3.16961975189E-17)
  );
#1243 = ORIENTED_EDGE('',*,*,#1224,.T.);
#1244 = ORIENTED_EDGE('',*,*,#268,.F.);
#1245 = ORIENTED_EDGE('',*,*,#1190,.T.);
#1246 = PLANE('',#1247);
#1247 = AXIS2_PLACEMENT_3D('',#1248,#1249,#1250);
#1248 = CARTESIAN_POINT('',(70.949999903287,-67.30474416751,64.32));
#1249 = DIRECTION('',(-0.49999995604,-0.866025429165,1.182917955289E-16)
  );
#1250 = DIRECTION('',(0.866025429165,-0.49999995604,-3.16961975189E-17)
  );
#1251 = ADVANCED_FACE('',(#1252),#1287,.F.);
#1252 = FACE_BOUND('',#1253,.F.);
#1253 = EDGE_LOOP('',(#1254,#1262,#1271,#1280,#1286));
#1254 = ORIENTED_EDGE('',*,*,#1255,.T.);
#1255 = EDGE_CURVE('',#312,#1256,#1258,.T.);
#1256 = VERTEX_POINT('',#1257);
#1257 = CARTESIAN_POINT('',(-8.184285963391,-37.82661962654,64.32));
#1258 = LINE('',#1259,#1260);
#1259 = CARTESIAN_POINT('',(-8.184285963391,-37.82661962654,64.32));
#1260 = VECTOR('',#1261,1.);
#1261 = DIRECTION('',(8.659560562355E-17,8.659560562355E-17,1.));
#1262 = ORIENTED_EDGE('',*,*,#1263,.T.);
#1263 = EDGE_CURVE('',#1256,#1264,#1266,.T.);
#1264 = VERTEX_POINT('',#1265);
#1265 = CARTESIAN_POINT('',(-9.68,-38.97,64.32));
#1266 = CIRCLE('',#1267,1.55);
#1267 = AXIS2_PLACEMENT_3D('',#1268,#1269,#1270);
#1268 = CARTESIAN_POINT('',(-9.68,-37.42,64.32));
#1269 = DIRECTION('',(-8.659560562355E-17,-8.659560562355E-17,-1.));
#1270 = DIRECTION('',(-2.22044604925E-16,-1.,8.659560562355E-17));
#1271 = ORIENTED_EDGE('',*,*,#1272,.T.);
#1272 = EDGE_CURVE('',#1264,#1273,#1275,.T.);
#1273 = VERTEX_POINT('',#1274);
#1274 = CARTESIAN_POINT('',(-10.07571393989,-38.91863620594,64.32));
#1275 = CIRCLE('',#1276,1.55);
#1276 = AXIS2_PLACEMENT_3D('',#1277,#1278,#1279);
#1277 = CARTESIAN_POINT('',(-9.68,-37.42,64.32));
#1278 = DIRECTION('',(-8.659560562355E-17,-8.659560562355E-17,-1.));
#1279 = DIRECTION('',(-2.22044604925E-16,-1.,8.659560562355E-17));
#1280 = ORIENTED_EDGE('',*,*,#1281,.F.);
#1281 = EDGE_CURVE('',#310,#1273,#1282,.T.);
#1282 = LINE('',#1283,#1284);
#1283 = CARTESIAN_POINT('',(-10.07571393989,-38.91863620594,64.32));
#1284 = VECTOR('',#1285,1.);
#1285 = DIRECTION('',(8.659560562355E-17,8.659560562355E-17,1.));
#1286 = ORIENTED_EDGE('',*,*,#309,.T.);
#1287 = CYLINDRICAL_SURFACE('',#1288,1.55);
#1288 = AXIS2_PLACEMENT_3D('',#1289,#1290,#1291);
#1289 = CARTESIAN_POINT('',(-9.68,-37.42,64.32));
#1290 = DIRECTION('',(8.659560562355E-17,8.659560562355E-17,1.));
#1291 = DIRECTION('',(-2.22044604925E-16,-1.,8.659560562355E-17));
#1292 = ADVANCED_FACE('',(#1293),#1311,.T.);
#1293 = FACE_BOUND('',#1294,.T.);
#1294 = EDGE_LOOP('',(#1295,#1303,#1304,#1305));
#1295 = ORIENTED_EDGE('',*,*,#1296,.F.);
#1296 = EDGE_CURVE('',#1273,#1297,#1299,.T.);
#1297 = VERTEX_POINT('',#1298);
#1298 = CARTESIAN_POINT('',(-10.77999990328,-39.32525594416,64.32));
#1299 = LINE('',#1300,#1301);
#1300 = CARTESIAN_POINT('',(-7.48,-37.41999988832,64.32));
#1301 = VECTOR('',#1302,1.);
#1302 = DIRECTION('',(-0.866025378404,-0.50000004396,1.182917987468E-16)
  );
#1303 = ORIENTED_EDGE('',*,*,#1281,.F.);
#1304 = ORIENTED_EDGE('',*,*,#378,.F.);
#1305 = ORIENTED_EDGE('',*,*,#1306,.F.);
#1306 = EDGE_CURVE('',#1297,#371,#1307,.T.);
#1307 = LINE('',#1308,#1309);
#1308 = CARTESIAN_POINT('',(-10.77999990328,-39.32525594416,64.32));
#1309 = VECTOR('',#1310,1.);
#1310 = DIRECTION('',(-8.659560562355E-17,-8.659560562355E-17,-1.));
#1311 = PLANE('',#1312);
#1312 = AXIS2_PLACEMENT_3D('',#1313,#1314,#1315);
#1313 = CARTESIAN_POINT('',(-7.48,-37.41999988832,64.32));
#1314 = DIRECTION('',(-0.50000004396,0.866025378404,-3.169618550974E-17)
  );
#1315 = DIRECTION('',(-0.866025378404,-0.50000004396,1.182917987468E-16)
  );
#1316 = ADVANCED_FACE('',(#1317),#1335,.T.);
#1317 = FACE_BOUND('',#1318,.T.);
#1318 = EDGE_LOOP('',(#1319,#1327,#1333,#1334));
#1319 = ORIENTED_EDGE('',*,*,#1320,.F.);
#1320 = EDGE_CURVE('',#1321,#1256,#1323,.T.);
#1321 = VERTEX_POINT('',#1322);
#1322 = CARTESIAN_POINT('',(-7.48,-37.41999988832,64.32));
#1323 = LINE('',#1324,#1325);
#1324 = CARTESIAN_POINT('',(-7.48,-37.41999988832,64.32));
#1325 = VECTOR('',#1326,1.);
#1326 = DIRECTION('',(-0.866025378404,-0.50000004396,1.182917987468E-16)
  );
#1327 = ORIENTED_EDGE('',*,*,#1328,.T.);
#1328 = EDGE_CURVE('',#1321,#321,#1329,.T.);
#1329 = LINE('',#1330,#1331);
#1330 = CARTESIAN_POINT('',(-7.48,-37.41999988832,64.32));
#1331 = VECTOR('',#1332,1.);
#1332 = DIRECTION('',(-8.659560562355E-17,-8.659560562355E-17,-1.));
#1333 = ORIENTED_EDGE('',*,*,#320,.F.);
#1334 = ORIENTED_EDGE('',*,*,#1255,.T.);
#1335 = PLANE('',#1336);
#1336 = AXIS2_PLACEMENT_3D('',#1337,#1338,#1339);
#1337 = CARTESIAN_POINT('',(-7.48,-37.41999988832,64.32));
#1338 = DIRECTION('',(-0.50000004396,0.866025378404,-3.169618550974E-17)
  );
#1339 = DIRECTION('',(-0.866025378404,-0.50000004396,1.182917987468E-16)
  );
#1340 = ADVANCED_FACE('',(#1341),#1359,.T.);
#1341 = FACE_BOUND('',#1342,.T.);
#1342 = EDGE_LOOP('',(#1343,#1351,#1352,#1353));
#1343 = ORIENTED_EDGE('',*,*,#1344,.F.);
#1344 = EDGE_CURVE('',#1297,#1345,#1347,.T.);
#1345 = VERTEX_POINT('',#1346);
#1346 = CARTESIAN_POINT('',(-10.77999994456,-38.51201653922,64.32));
#1347 = LINE('',#1348,#1349);
#1348 = CARTESIAN_POINT('',(-10.77999990328,-39.32525594416,64.32));
#1349 = VECTOR('',#1350,1.);
#1350 = DIRECTION('',(-5.076101552796E-08,1.,-8.659560122787E-17));
#1351 = ORIENTED_EDGE('',*,*,#1306,.T.);
#1352 = ORIENTED_EDGE('',*,*,#370,.F.);
#1353 = ORIENTED_EDGE('',*,*,#1354,.T.);
#1354 = EDGE_CURVE('',#362,#1345,#1355,.T.);
#1355 = LINE('',#1356,#1357);
#1356 = CARTESIAN_POINT('',(-10.77999994456,-38.51201653922,64.32));
#1357 = VECTOR('',#1358,1.);
#1358 = DIRECTION('',(8.659560562355E-17,8.659560562355E-17,1.));
#1359 = PLANE('',#1360);
#1360 = AXIS2_PLACEMENT_3D('',#1361,#1362,#1363);
#1361 = CARTESIAN_POINT('',(-10.77999990328,-39.32525594416,64.32));
#1362 = DIRECTION('',(1.,5.076101552796E-08,-8.659561001923E-17));
#1363 = DIRECTION('',(-5.076101552796E-08,1.,-8.659560122787E-17));
#1364 = ADVANCED_FACE('',(#1365),#1383,.T.);
#1365 = FACE_BOUND('',#1366,.T.);
#1366 = EDGE_LOOP('',(#1367,#1375,#1381,#1382));
#1367 = ORIENTED_EDGE('',*,*,#1368,.F.);
#1368 = EDGE_CURVE('',#1369,#1321,#1371,.T.);
#1369 = VERTEX_POINT('',#1370);
#1370 = CARTESIAN_POINT('',(-8.184286004672,-37.0133802216,64.32));
#1371 = LINE('',#1372,#1373);
#1372 = CARTESIAN_POINT('',(-10.78000009671,-35.51474416751,64.32));
#1373 = VECTOR('',#1374,1.);
#1374 = DIRECTION('',(0.866025429165,-0.49999995604,-3.16961975189E-17)
  );
#1375 = ORIENTED_EDGE('',*,*,#1376,.F.);
#1376 = EDGE_CURVE('',#329,#1369,#1377,.T.);
#1377 = LINE('',#1378,#1379);
#1378 = CARTESIAN_POINT('',(-8.184286004672,-37.0133802216,64.32));
#1379 = VECTOR('',#1380,1.);
#1380 = DIRECTION('',(8.659560562355E-17,8.659560562355E-17,1.));
#1381 = ORIENTED_EDGE('',*,*,#328,.F.);
#1382 = ORIENTED_EDGE('',*,*,#1328,.F.);
#1383 = PLANE('',#1384);
#1384 = AXIS2_PLACEMENT_3D('',#1385,#1386,#1387);
#1385 = CARTESIAN_POINT('',(-10.78000009671,-35.51474416751,64.32));
#1386 = DIRECTION('',(-0.49999995604,-0.866025429165,1.182917955289E-16)
  );
#1387 = DIRECTION('',(0.866025429165,-0.49999995604,-3.16961975189E-17)
  );
#1388 = ADVANCED_FACE('',(#1389),#1408,.F.);
#1389 = FACE_BOUND('',#1390,.F.);
#1390 = EDGE_LOOP('',(#1391,#1399,#1400,#1401));
#1391 = ORIENTED_EDGE('',*,*,#1392,.F.);
#1392 = EDGE_CURVE('',#354,#1393,#1395,.T.);
#1393 = VERTEX_POINT('',#1394);
#1394 = CARTESIAN_POINT('',(-10.78000005543,-36.32798357244,64.32));
#1395 = LINE('',#1396,#1397);
#1396 = CARTESIAN_POINT('',(-10.78000005543,-36.32798357244,64.32));
#1397 = VECTOR('',#1398,1.);
#1398 = DIRECTION('',(8.659560562355E-17,8.659560562355E-17,1.));
#1399 = ORIENTED_EDGE('',*,*,#361,.T.);
#1400 = ORIENTED_EDGE('',*,*,#1354,.T.);
#1401 = ORIENTED_EDGE('',*,*,#1402,.T.);
#1402 = EDGE_CURVE('',#1345,#1393,#1403,.T.);
#1403 = CIRCLE('',#1404,1.55);
#1404 = AXIS2_PLACEMENT_3D('',#1405,#1406,#1407);
#1405 = CARTESIAN_POINT('',(-9.68,-37.42,64.32));
#1406 = DIRECTION('',(-8.659560562355E-17,-8.659560562355E-17,-1.));
#1407 = DIRECTION('',(-2.22044604925E-16,-1.,8.659560562355E-17));
#1408 = CYLINDRICAL_SURFACE('',#1409,1.55);
#1409 = AXIS2_PLACEMENT_3D('',#1410,#1411,#1412);
#1410 = CARTESIAN_POINT('',(-9.68,-37.42,64.32));
#1411 = DIRECTION('',(8.659560562355E-17,8.659560562355E-17,1.));
#1412 = DIRECTION('',(-2.22044604925E-16,-1.,8.659560562355E-17));
#1413 = ADVANCED_FACE('',(#1414),#1433,.F.);
#1414 = FACE_BOUND('',#1415,.F.);
#1415 = EDGE_LOOP('',(#1416,#1417,#1425,#1432));
#1416 = ORIENTED_EDGE('',*,*,#336,.T.);
#1417 = ORIENTED_EDGE('',*,*,#1418,.T.);
#1418 = EDGE_CURVE('',#337,#1419,#1421,.T.);
#1419 = VERTEX_POINT('',#1420);
#1420 = CARTESIAN_POINT('',(-10.07571409204,-35.92136383422,64.32));
#1421 = LINE('',#1422,#1423);
#1422 = CARTESIAN_POINT('',(-10.07571409204,-35.92136383422,64.32));
#1423 = VECTOR('',#1424,1.);
#1424 = DIRECTION('',(8.659560562355E-17,8.659560562355E-17,1.));
#1425 = ORIENTED_EDGE('',*,*,#1426,.T.);
#1426 = EDGE_CURVE('',#1419,#1369,#1427,.T.);
#1427 = CIRCLE('',#1428,1.55);
#1428 = AXIS2_PLACEMENT_3D('',#1429,#1430,#1431);
#1429 = CARTESIAN_POINT('',(-9.68,-37.42,64.32));
#1430 = DIRECTION('',(-8.659560562355E-17,-8.659560562355E-17,-1.));
#1431 = DIRECTION('',(-2.22044604925E-16,-1.,8.659560562355E-17));
#1432 = ORIENTED_EDGE('',*,*,#1376,.F.);
#1433 = CYLINDRICAL_SURFACE('',#1434,1.55);
#1434 = AXIS2_PLACEMENT_3D('',#1435,#1436,#1437);
#1435 = CARTESIAN_POINT('',(-9.68,-37.42,64.32));
#1436 = DIRECTION('',(8.659560562355E-17,8.659560562355E-17,1.));
#1437 = DIRECTION('',(-2.22044604925E-16,-1.,8.659560562355E-17));
#1438 = ADVANCED_FACE('',(#1439),#1457,.T.);
#1439 = FACE_BOUND('',#1440,.T.);
#1440 = EDGE_LOOP('',(#1441,#1449,#1450,#1451));
#1441 = ORIENTED_EDGE('',*,*,#1442,.F.);
#1442 = EDGE_CURVE('',#1393,#1443,#1445,.T.);
#1443 = VERTEX_POINT('',#1444);
#1444 = CARTESIAN_POINT('',(-10.78000009671,-35.51474416751,64.32));
#1445 = LINE('',#1446,#1447);
#1446 = CARTESIAN_POINT('',(-10.77999990328,-39.32525594416,64.32));
#1447 = VECTOR('',#1448,1.);
#1448 = DIRECTION('',(-5.076101552796E-08,1.,-8.659560122787E-17));
#1449 = ORIENTED_EDGE('',*,*,#1392,.F.);
#1450 = ORIENTED_EDGE('',*,*,#353,.F.);
#1451 = ORIENTED_EDGE('',*,*,#1452,.F.);
#1452 = EDGE_CURVE('',#1443,#346,#1453,.T.);
#1453 = LINE('',#1454,#1455);
#1454 = CARTESIAN_POINT('',(-10.78000009671,-35.51474416751,64.32));
#1455 = VECTOR('',#1456,1.);
#1456 = DIRECTION('',(-8.659560562355E-17,-8.659560562355E-17,-1.));
#1457 = PLANE('',#1458);
#1458 = AXIS2_PLACEMENT_3D('',#1459,#1460,#1461);
#1459 = CARTESIAN_POINT('',(-10.77999990328,-39.32525594416,64.32));
#1460 = DIRECTION('',(1.,5.076101552796E-08,-8.659561001923E-17));
#1461 = DIRECTION('',(-5.076101552796E-08,1.,-8.659560122787E-17));
#1462 = ADVANCED_FACE('',(#1463),#1474,.T.);
#1463 = FACE_BOUND('',#1464,.T.);
#1464 = EDGE_LOOP('',(#1465,#1471,#1472,#1473));
#1465 = ORIENTED_EDGE('',*,*,#1466,.F.);
#1466 = EDGE_CURVE('',#1443,#1419,#1467,.T.);
#1467 = LINE('',#1468,#1469);
#1468 = CARTESIAN_POINT('',(-10.78000009671,-35.51474416751,64.32));
#1469 = VECTOR('',#1470,1.);
#1470 = DIRECTION('',(0.866025429165,-0.49999995604,-3.16961975189E-17)
  );
#1471 = ORIENTED_EDGE('',*,*,#1452,.T.);
#1472 = ORIENTED_EDGE('',*,*,#345,.F.);
#1473 = ORIENTED_EDGE('',*,*,#1418,.T.);
#1474 = PLANE('',#1475);
#1475 = AXIS2_PLACEMENT_3D('',#1476,#1477,#1478);
#1476 = CARTESIAN_POINT('',(-10.78000009671,-35.51474416751,64.32));
#1477 = DIRECTION('',(-0.49999995604,-0.866025429165,1.182917955289E-16)
  );
#1478 = DIRECTION('',(0.866025429165,-0.49999995604,-3.16961975189E-17)
  );
#1479 = ADVANCED_FACE('',(#1480),#1515,.F.);
#1480 = FACE_BOUND('',#1481,.F.);
#1481 = EDGE_LOOP('',(#1482,#1490,#1499,#1508,#1514));
#1482 = ORIENTED_EDGE('',*,*,#1483,.T.);
#1483 = EDGE_CURVE('',#389,#1484,#1486,.T.);
#1484 = VERTEX_POINT('',#1485);
#1485 = CARTESIAN_POINT('',(-8.254285963391,-69.61661962654,64.32));
#1486 = LINE('',#1487,#1488);
#1487 = CARTESIAN_POINT('',(-8.254285963391,-69.61661962654,64.32));
#1488 = VECTOR('',#1489,1.);
#1489 = DIRECTION('',(8.659560562355E-17,8.659560562355E-17,1.));
#1490 = ORIENTED_EDGE('',*,*,#1491,.T.);
#1491 = EDGE_CURVE('',#1484,#1492,#1494,.T.);
#1492 = VERTEX_POINT('',#1493);
#1493 = CARTESIAN_POINT('',(-9.75,-70.76,64.32));
#1494 = CIRCLE('',#1495,1.55);
#1495 = AXIS2_PLACEMENT_3D('',#1496,#1497,#1498);
#1496 = CARTESIAN_POINT('',(-9.75,-69.21,64.32));
#1497 = DIRECTION('',(-8.659560562355E-17,-8.659560562355E-17,-1.));
#1498 = DIRECTION('',(-2.22044604925E-16,-1.,8.659560562355E-17));
#1499 = ORIENTED_EDGE('',*,*,#1500,.T.);
#1500 = EDGE_CURVE('',#1492,#1501,#1503,.T.);
#1501 = VERTEX_POINT('',#1502);
#1502 = CARTESIAN_POINT('',(-10.14571393989,-70.70863620594,64.32));
#1503 = CIRCLE('',#1504,1.55);
#1504 = AXIS2_PLACEMENT_3D('',#1505,#1506,#1507);
#1505 = CARTESIAN_POINT('',(-9.75,-69.21,64.32));
#1506 = DIRECTION('',(-8.659560562355E-17,-8.659560562355E-17,-1.));
#1507 = DIRECTION('',(-2.22044604925E-16,-1.,8.659560562355E-17));
#1508 = ORIENTED_EDGE('',*,*,#1509,.F.);
#1509 = EDGE_CURVE('',#387,#1501,#1510,.T.);
#1510 = LINE('',#1511,#1512);
#1511 = CARTESIAN_POINT('',(-10.14571393989,-70.70863620594,64.32));
#1512 = VECTOR('',#1513,1.);
#1513 = DIRECTION('',(8.659560562355E-17,8.659560562355E-17,1.));
#1514 = ORIENTED_EDGE('',*,*,#386,.T.);
#1515 = CYLINDRICAL_SURFACE('',#1516,1.55);
#1516 = AXIS2_PLACEMENT_3D('',#1517,#1518,#1519);
#1517 = CARTESIAN_POINT('',(-9.75,-69.21,64.32));
#1518 = DIRECTION('',(8.659560562355E-17,8.659560562355E-17,1.));
#1519 = DIRECTION('',(-2.22044604925E-16,-1.,8.659560562355E-17));
#1520 = ADVANCED_FACE('',(#1521),#1539,.T.);
#1521 = FACE_BOUND('',#1522,.T.);
#1522 = EDGE_LOOP('',(#1523,#1531,#1532,#1533));
#1523 = ORIENTED_EDGE('',*,*,#1524,.F.);
#1524 = EDGE_CURVE('',#1501,#1525,#1527,.T.);
#1525 = VERTEX_POINT('',#1526);
#1526 = CARTESIAN_POINT('',(-10.84999990328,-71.11525594416,64.32));
#1527 = LINE('',#1528,#1529);
#1528 = CARTESIAN_POINT('',(-7.55,-69.20999988832,64.32));
#1529 = VECTOR('',#1530,1.);
#1530 = DIRECTION('',(-0.866025378404,-0.50000004396,1.182917987468E-16)
  );
#1531 = ORIENTED_EDGE('',*,*,#1509,.F.);
#1532 = ORIENTED_EDGE('',*,*,#455,.F.);
#1533 = ORIENTED_EDGE('',*,*,#1534,.F.);
#1534 = EDGE_CURVE('',#1525,#448,#1535,.T.);
#1535 = LINE('',#1536,#1537);
#1536 = CARTESIAN_POINT('',(-10.84999990328,-71.11525594416,64.32));
#1537 = VECTOR('',#1538,1.);
#1538 = DIRECTION('',(-8.659560562355E-17,-8.659560562355E-17,-1.));
#1539 = PLANE('',#1540);
#1540 = AXIS2_PLACEMENT_3D('',#1541,#1542,#1543);
#1541 = CARTESIAN_POINT('',(-7.55,-69.20999988832,64.32));
#1542 = DIRECTION('',(-0.50000004396,0.866025378404,-3.169618550974E-17)
  );
#1543 = DIRECTION('',(-0.866025378404,-0.50000004396,1.182917987468E-16)
  );
#1544 = ADVANCED_FACE('',(#1545),#1563,.T.);
#1545 = FACE_BOUND('',#1546,.T.);
#1546 = EDGE_LOOP('',(#1547,#1555,#1556,#1557));
#1547 = ORIENTED_EDGE('',*,*,#1548,.F.);
#1548 = EDGE_CURVE('',#1525,#1549,#1551,.T.);
#1549 = VERTEX_POINT('',#1550);
#1550 = CARTESIAN_POINT('',(-10.84999994456,-70.30201653922,64.32));
#1551 = LINE('',#1552,#1553);
#1552 = CARTESIAN_POINT('',(-10.84999990328,-71.11525594416,64.32));
#1553 = VECTOR('',#1554,1.);
#1554 = DIRECTION('',(-5.076101552796E-08,1.,-8.659560122787E-17));
#1555 = ORIENTED_EDGE('',*,*,#1534,.T.);
#1556 = ORIENTED_EDGE('',*,*,#447,.F.);
#1557 = ORIENTED_EDGE('',*,*,#1558,.T.);
#1558 = EDGE_CURVE('',#439,#1549,#1559,.T.);
#1559 = LINE('',#1560,#1561);
#1560 = CARTESIAN_POINT('',(-10.84999994456,-70.30201653922,64.32));
#1561 = VECTOR('',#1562,1.);
#1562 = DIRECTION('',(8.659560562355E-17,8.659560562355E-17,1.));
#1563 = PLANE('',#1564);
#1564 = AXIS2_PLACEMENT_3D('',#1565,#1566,#1567);
#1565 = CARTESIAN_POINT('',(-10.84999990328,-71.11525594416,64.32));
#1566 = DIRECTION('',(1.,5.076101552796E-08,-8.659561001923E-17));
#1567 = DIRECTION('',(-5.076101552796E-08,1.,-8.659560122787E-17));
#1568 = ADVANCED_FACE('',(#1569),#1588,.F.);
#1569 = FACE_BOUND('',#1570,.F.);
#1570 = EDGE_LOOP('',(#1571,#1579,#1580,#1581));
#1571 = ORIENTED_EDGE('',*,*,#1572,.F.);
#1572 = EDGE_CURVE('',#431,#1573,#1575,.T.);
#1573 = VERTEX_POINT('',#1574);
#1574 = CARTESIAN_POINT('',(-10.85000005543,-68.11798357244,64.32));
#1575 = LINE('',#1576,#1577);
#1576 = CARTESIAN_POINT('',(-10.85000005543,-68.11798357244,64.32));
#1577 = VECTOR('',#1578,1.);
#1578 = DIRECTION('',(8.659560562355E-17,8.659560562355E-17,1.));
#1579 = ORIENTED_EDGE('',*,*,#438,.T.);
#1580 = ORIENTED_EDGE('',*,*,#1558,.T.);
#1581 = ORIENTED_EDGE('',*,*,#1582,.T.);
#1582 = EDGE_CURVE('',#1549,#1573,#1583,.T.);
#1583 = CIRCLE('',#1584,1.55);
#1584 = AXIS2_PLACEMENT_3D('',#1585,#1586,#1587);
#1585 = CARTESIAN_POINT('',(-9.75,-69.21,64.32));
#1586 = DIRECTION('',(-8.659560562355E-17,-8.659560562355E-17,-1.));
#1587 = DIRECTION('',(-2.22044604925E-16,-1.,8.659560562355E-17));
#1588 = CYLINDRICAL_SURFACE('',#1589,1.55);
#1589 = AXIS2_PLACEMENT_3D('',#1590,#1591,#1592);
#1590 = CARTESIAN_POINT('',(-9.75,-69.21,64.32));
#1591 = DIRECTION('',(8.659560562355E-17,8.659560562355E-17,1.));
#1592 = DIRECTION('',(-2.22044604925E-16,-1.,8.659560562355E-17));
#1593 = ADVANCED_FACE('',(#1594),#1612,.T.);
#1594 = FACE_BOUND('',#1595,.T.);
#1595 = EDGE_LOOP('',(#1596,#1604,#1605,#1606));
#1596 = ORIENTED_EDGE('',*,*,#1597,.F.);
#1597 = EDGE_CURVE('',#1573,#1598,#1600,.T.);
#1598 = VERTEX_POINT('',#1599);
#1599 = CARTESIAN_POINT('',(-10.85000009671,-67.30474416751,64.32));
#1600 = LINE('',#1601,#1602);
#1601 = CARTESIAN_POINT('',(-10.84999990328,-71.11525594416,64.32));
#1602 = VECTOR('',#1603,1.);
#1603 = DIRECTION('',(-5.076101552796E-08,1.,-8.659560122787E-17));
#1604 = ORIENTED_EDGE('',*,*,#1572,.F.);
#1605 = ORIENTED_EDGE('',*,*,#430,.F.);
#1606 = ORIENTED_EDGE('',*,*,#1607,.F.);
#1607 = EDGE_CURVE('',#1598,#423,#1608,.T.);
#1608 = LINE('',#1609,#1610);
#1609 = CARTESIAN_POINT('',(-10.85000009671,-67.30474416751,64.32));
#1610 = VECTOR('',#1611,1.);
#1611 = DIRECTION('',(-8.659560562355E-17,-8.659560562355E-17,-1.));
#1612 = PLANE('',#1613);
#1613 = AXIS2_PLACEMENT_3D('',#1614,#1615,#1616);
#1614 = CARTESIAN_POINT('',(-10.84999990328,-71.11525594416,64.32));
#1615 = DIRECTION('',(1.,5.076101552796E-08,-8.659561001923E-17));
#1616 = DIRECTION('',(-5.076101552796E-08,1.,-8.659560122787E-17));
#1617 = ADVANCED_FACE('',(#1618),#1636,.T.);
#1618 = FACE_BOUND('',#1619,.T.);
#1619 = EDGE_LOOP('',(#1620,#1628,#1629,#1630));
#1620 = ORIENTED_EDGE('',*,*,#1621,.F.);
#1621 = EDGE_CURVE('',#1598,#1622,#1624,.T.);
#1622 = VERTEX_POINT('',#1623);
#1623 = CARTESIAN_POINT('',(-10.14571409204,-67.71136383422,64.32));
#1624 = LINE('',#1625,#1626);
#1625 = CARTESIAN_POINT('',(-10.85000009671,-67.30474416751,64.32));
#1626 = VECTOR('',#1627,1.);
#1627 = DIRECTION('',(0.866025429165,-0.49999995604,-3.16961975189E-17)
  );
#1628 = ORIENTED_EDGE('',*,*,#1607,.T.);
#1629 = ORIENTED_EDGE('',*,*,#422,.F.);
#1630 = ORIENTED_EDGE('',*,*,#1631,.T.);
#1631 = EDGE_CURVE('',#414,#1622,#1632,.T.);
#1632 = LINE('',#1633,#1634);
#1633 = CARTESIAN_POINT('',(-10.14571409204,-67.71136383422,64.32));
#1634 = VECTOR('',#1635,1.);
#1635 = DIRECTION('',(8.659560562355E-17,8.659560562355E-17,1.));
#1636 = PLANE('',#1637);
#1637 = AXIS2_PLACEMENT_3D('',#1638,#1639,#1640);
#1638 = CARTESIAN_POINT('',(-10.85000009671,-67.30474416751,64.32));
#1639 = DIRECTION('',(-0.49999995604,-0.866025429165,1.182917955289E-16)
  );
#1640 = DIRECTION('',(0.866025429165,-0.49999995604,-3.16961975189E-17)
  );
#1641 = ADVANCED_FACE('',(#1642),#1661,.F.);
#1642 = FACE_BOUND('',#1643,.F.);
#1643 = EDGE_LOOP('',(#1644,#1645,#1646,#1655));
#1644 = ORIENTED_EDGE('',*,*,#413,.T.);
#1645 = ORIENTED_EDGE('',*,*,#1631,.T.);
#1646 = ORIENTED_EDGE('',*,*,#1647,.T.);
#1647 = EDGE_CURVE('',#1622,#1648,#1650,.T.);
#1648 = VERTEX_POINT('',#1649);
#1649 = CARTESIAN_POINT('',(-8.254286004672,-68.8033802216,64.32));
#1650 = CIRCLE('',#1651,1.55);
#1651 = AXIS2_PLACEMENT_3D('',#1652,#1653,#1654);
#1652 = CARTESIAN_POINT('',(-9.75,-69.21,64.32));
#1653 = DIRECTION('',(-8.659560562355E-17,-8.659560562355E-17,-1.));
#1654 = DIRECTION('',(-2.22044604925E-16,-1.,8.659560562355E-17));
#1655 = ORIENTED_EDGE('',*,*,#1656,.F.);
#1656 = EDGE_CURVE('',#406,#1648,#1657,.T.);
#1657 = LINE('',#1658,#1659);
#1658 = CARTESIAN_POINT('',(-8.254286004672,-68.8033802216,64.32));
#1659 = VECTOR('',#1660,1.);
#1660 = DIRECTION('',(8.659560562355E-17,8.659560562355E-17,1.));
#1661 = CYLINDRICAL_SURFACE('',#1662,1.55);
#1662 = AXIS2_PLACEMENT_3D('',#1663,#1664,#1665);
#1663 = CARTESIAN_POINT('',(-9.75,-69.21,64.32));
#1664 = DIRECTION('',(8.659560562355E-17,8.659560562355E-17,1.));
#1665 = DIRECTION('',(-2.22044604925E-16,-1.,8.659560562355E-17));
#1666 = ADVANCED_FACE('',(#1667),#1685,.T.);
#1667 = FACE_BOUND('',#1668,.T.);
#1668 = EDGE_LOOP('',(#1669,#1677,#1678,#1679));
#1669 = ORIENTED_EDGE('',*,*,#1670,.F.);
#1670 = EDGE_CURVE('',#1648,#1671,#1673,.T.);
#1671 = VERTEX_POINT('',#1672);
#1672 = CARTESIAN_POINT('',(-7.55,-69.20999988832,64.32));
#1673 = LINE('',#1674,#1675);
#1674 = CARTESIAN_POINT('',(-10.85000009671,-67.30474416751,64.32));
#1675 = VECTOR('',#1676,1.);
#1676 = DIRECTION('',(0.866025429165,-0.49999995604,-3.16961975189E-17)
  );
#1677 = ORIENTED_EDGE('',*,*,#1656,.F.);
#1678 = ORIENTED_EDGE('',*,*,#405,.F.);
#1679 = ORIENTED_EDGE('',*,*,#1680,.F.);
#1680 = EDGE_CURVE('',#1671,#398,#1681,.T.);
#1681 = LINE('',#1682,#1683);
#1682 = CARTESIAN_POINT('',(-7.55,-69.20999988832,64.32));
#1683 = VECTOR('',#1684,1.);
#1684 = DIRECTION('',(-8.659560562355E-17,-8.659560562355E-17,-1.));
#1685 = PLANE('',#1686);
#1686 = AXIS2_PLACEMENT_3D('',#1687,#1688,#1689);
#1687 = CARTESIAN_POINT('',(-10.85000009671,-67.30474416751,64.32));
#1688 = DIRECTION('',(-0.49999995604,-0.866025429165,1.182917955289E-16)
  );
#1689 = DIRECTION('',(0.866025429165,-0.49999995604,-3.16961975189E-17)
  );
#1690 = ADVANCED_FACE('',(#1691),#1702,.T.);
#1691 = FACE_BOUND('',#1692,.T.);
#1692 = EDGE_LOOP('',(#1693,#1699,#1700,#1701));
#1693 = ORIENTED_EDGE('',*,*,#1694,.F.);
#1694 = EDGE_CURVE('',#1671,#1484,#1695,.T.);
#1695 = LINE('',#1696,#1697);
#1696 = CARTESIAN_POINT('',(-7.55,-69.20999988832,64.32));
#1697 = VECTOR('',#1698,1.);
#1698 = DIRECTION('',(-0.866025378404,-0.50000004396,1.182917987468E-16)
  );
#1699 = ORIENTED_EDGE('',*,*,#1680,.T.);
#1700 = ORIENTED_EDGE('',*,*,#397,.F.);
#1701 = ORIENTED_EDGE('',*,*,#1483,.T.);
#1702 = PLANE('',#1703);
#1703 = AXIS2_PLACEMENT_3D('',#1704,#1705,#1706);
#1704 = CARTESIAN_POINT('',(-7.55,-69.20999988832,64.32));
#1705 = DIRECTION('',(-0.50000004396,0.866025378404,-3.169618550974E-17)
  );
#1706 = DIRECTION('',(-0.866025378404,-0.50000004396,1.182917987468E-16)
  );
#1707 = ADVANCED_FACE('',(#1708),#1720,.F.);
#1708 = FACE_BOUND('',#1709,.F.);
#1709 = EDGE_LOOP('',(#1710,#1711,#1712,#1713,#1714,#1715,#1716,#1717,
    #1718,#1719));
#1710 = ORIENTED_EDGE('',*,*,#840,.F.);
#1711 = ORIENTED_EDGE('',*,*,#816,.F.);
#1712 = ORIENTED_EDGE('',*,*,#807,.F.);
#1713 = ORIENTED_EDGE('',*,*,#864,.F.);
#1714 = ORIENTED_EDGE('',*,*,#912,.F.);
#1715 = ORIENTED_EDGE('',*,*,#970,.F.);
#1716 = ORIENTED_EDGE('',*,*,#1010,.F.);
#1717 = ORIENTED_EDGE('',*,*,#986,.F.);
#1718 = ORIENTED_EDGE('',*,*,#946,.F.);
#1719 = ORIENTED_EDGE('',*,*,#888,.F.);
#1720 = PLANE('',#1721);
#1721 = AXIS2_PLACEMENT_3D('',#1722,#1723,#1724);
#1722 = CARTESIAN_POINT('',(72.051278347535,-37.46362270296,64.32));
#1723 = DIRECTION('',(8.659560562355E-17,8.659560562355E-17,1.));
#1724 = DIRECTION('',(2.22044604925E-16,1.,-8.659560562355E-17));
#1725 = ADVANCED_FACE('',(#1726),#1738,.F.);
#1726 = FACE_BOUND('',#1727,.F.);
#1727 = EDGE_LOOP('',(#1728,#1729,#1730,#1731,#1732,#1733,#1734,#1735,
    #1736,#1737));
#1728 = ORIENTED_EDGE('',*,*,#1068,.F.);
#1729 = ORIENTED_EDGE('',*,*,#1044,.F.);
#1730 = ORIENTED_EDGE('',*,*,#1035,.F.);
#1731 = ORIENTED_EDGE('',*,*,#1092,.F.);
#1732 = ORIENTED_EDGE('',*,*,#1140,.F.);
#1733 = ORIENTED_EDGE('',*,*,#1198,.F.);
#1734 = ORIENTED_EDGE('',*,*,#1238,.F.);
#1735 = ORIENTED_EDGE('',*,*,#1214,.F.);
#1736 = ORIENTED_EDGE('',*,*,#1174,.F.);
#1737 = ORIENTED_EDGE('',*,*,#1116,.F.);
#1738 = PLANE('',#1739);
#1739 = AXIS2_PLACEMENT_3D('',#1740,#1741,#1742);
#1740 = CARTESIAN_POINT('',(72.051278347535,-69.21362270296,64.32));
#1741 = DIRECTION('',(8.659560562355E-17,8.659560562355E-17,1.));
#1742 = DIRECTION('',(2.22044604925E-16,1.,-8.659560562355E-17));
#1743 = ADVANCED_FACE('',(#1744),#1756,.F.);
#1744 = FACE_BOUND('',#1745,.F.);
#1745 = EDGE_LOOP('',(#1746,#1747,#1748,#1749,#1750,#1751,#1752,#1753,
    #1754,#1755));
#1746 = ORIENTED_EDGE('',*,*,#1296,.F.);
#1747 = ORIENTED_EDGE('',*,*,#1272,.F.);
#1748 = ORIENTED_EDGE('',*,*,#1263,.F.);
#1749 = ORIENTED_EDGE('',*,*,#1320,.F.);
#1750 = ORIENTED_EDGE('',*,*,#1368,.F.);
#1751 = ORIENTED_EDGE('',*,*,#1426,.F.);
#1752 = ORIENTED_EDGE('',*,*,#1466,.F.);
#1753 = ORIENTED_EDGE('',*,*,#1442,.F.);
#1754 = ORIENTED_EDGE('',*,*,#1402,.F.);
#1755 = ORIENTED_EDGE('',*,*,#1344,.F.);
#1756 = PLANE('',#1757);
#1757 = AXIS2_PLACEMENT_3D('',#1758,#1759,#1760);
#1758 = CARTESIAN_POINT('',(-9.678721652465,-37.42362270296,64.32));
#1759 = DIRECTION('',(8.659560562355E-17,8.659560562355E-17,1.));
#1760 = DIRECTION('',(2.22044604925E-16,1.,-8.659560562355E-17));
#1761 = ADVANCED_FACE('',(#1762),#1774,.F.);
#1762 = FACE_BOUND('',#1763,.F.);
#1763 = EDGE_LOOP('',(#1764,#1765,#1766,#1767,#1768,#1769,#1770,#1771,
    #1772,#1773));
#1764 = ORIENTED_EDGE('',*,*,#1524,.F.);
#1765 = ORIENTED_EDGE('',*,*,#1500,.F.);
#1766 = ORIENTED_EDGE('',*,*,#1491,.F.);
#1767 = ORIENTED_EDGE('',*,*,#1694,.F.);
#1768 = ORIENTED_EDGE('',*,*,#1670,.F.);
#1769 = ORIENTED_EDGE('',*,*,#1647,.F.);
#1770 = ORIENTED_EDGE('',*,*,#1621,.F.);
#1771 = ORIENTED_EDGE('',*,*,#1597,.F.);
#1772 = ORIENTED_EDGE('',*,*,#1582,.F.);
#1773 = ORIENTED_EDGE('',*,*,#1548,.F.);
#1774 = PLANE('',#1775);
#1775 = AXIS2_PLACEMENT_3D('',#1776,#1777,#1778);
#1776 = CARTESIAN_POINT('',(-9.748721652465,-69.21362270296,64.32));
#1777 = DIRECTION('',(8.659560562355E-17,8.659560562355E-17,1.));
#1778 = DIRECTION('',(2.22044604925E-16,1.,-8.659560562355E-17));
#1779 = ( GEOMETRIC_REPRESENTATION_CONTEXT(3) 
GLOBAL_UNCERTAINTY_ASSIGNED_CONTEXT((#1783)) 
GLOBAL_UNIT_ASSIGNED_CONTEXT((#1780,#1781,#1782)) REPRESENTATION_CONTEXT
('Context #1','3D Context with UNIT and UNCERTAINTY') );
#1780 = ( LENGTH_UNIT() NAMED_UNIT(*) SI_UNIT(.MILLI.,.METRE.) );
#1781 = ( NAMED_UNIT(*) PLANE_ANGLE_UNIT() SI_UNIT($,.RADIAN.) );
#1782 = ( NAMED_UNIT(*) SI_UNIT($,.STERADIAN.) SOLID_ANGLE_UNIT() );
#1783 = UNCERTAINTY_MEASURE_WITH_UNIT(LENGTH_MEASURE(2.E-05),#1780,
  'distance_accuracy_value','confusion accuracy');
#1784 = PRODUCT_RELATED_PRODUCT_CATEGORY('part',$,(#7));
#1785 = MECHANICAL_DESIGN_GEOMETRIC_PRESENTATION_REPRESENTATION('',(
    #1786),#1779);
#1786 = STYLED_ITEM('color',(#1787),#15);
#1787 = PRESENTATION_STYLE_ASSIGNMENT((#1788,#1794));
#1788 = SURFACE_STYLE_USAGE(.BOTH.,#1789);
#1789 = SURFACE_SIDE_STYLE('',(#1790));
#1790 = SURFACE_STYLE_FILL_AREA(#1791);
#1791 = FILL_AREA_STYLE('',(#1792));
#1792 = FILL_AREA_STYLE_COLOUR('',#1793);
#1793 = COLOUR_RGB('',0.447058818107,0.474509808674,0.501960817233);
#1794 = CURVE_STYLE('',#1795,POSITIVE_LENGTH_MEASURE(0.1),#1796);
#1795 = DRAUGHTING_PRE_DEFINED_CURVE_FONT('continuous');
#1796 = COLOUR_RGB('',9.803921802644E-02,9.803921802644E-02,
  9.803921802644E-02);
ENDSEC;
END-ISO-10303-21;
